<mxfile host="Electron" modified="2024-03-21T19:04:55.122Z" agent="Mozilla/5.0 (Macintosh; Intel Mac OS X 10_15_7) AppleWebKit/537.36 (KHTML, like Gecko) draw.io/24.0.4 Chrome/120.0.6099.109 Electron/28.1.0 Safari/537.36" etag="z0cb55Sfoxi51N8dqbpp" version="24.0.4" type="device" pages="2">
  <diagram name="datalake" id="Ct7ewrQOKqSHw4GH9Awl">
    <mxGraphModel dx="1912" dy="2308" grid="0" gridSize="10" guides="1" tooltips="1" connect="1" arrows="1" fold="1" page="1" pageScale="1" pageWidth="827" pageHeight="1169" background="#333333" math="0" shadow="0">
      <root>
        <mxCell id="0" />
        <mxCell id="1" parent="0" />
        <mxCell id="-u1k-036uKY5tc66i7Ku-13" value="&lt;blockquote style=&quot;margin: 0 0 0 40px; border: none; padding: 0px;&quot;&gt;&lt;div style=&quot;&quot;&gt;&lt;span style=&quot;font-size: 24px;&quot;&gt;Data Consumer&lt;/span&gt;&lt;/div&gt;&lt;/blockquote&gt;" style="rounded=0;whiteSpace=wrap;html=1;align=left;labelPosition=center;verticalLabelPosition=top;verticalAlign=bottom;" vertex="1" parent="1">
          <mxGeometry x="1377" y="30" width="222" height="738" as="geometry" />
        </mxCell>
        <mxCell id="-u1k-036uKY5tc66i7Ku-1" value="&lt;blockquote style=&quot;margin: 0 0 0 40px; border: none; padding: 0px;&quot;&gt;&lt;div style=&quot;&quot;&gt;&lt;font style=&quot;font-size: 24px;&quot;&gt;Data Sources&lt;/font&gt;&lt;/div&gt;&lt;/blockquote&gt;" style="rounded=0;whiteSpace=wrap;html=1;align=left;labelPosition=center;verticalLabelPosition=top;verticalAlign=bottom;" vertex="1" parent="1">
          <mxGeometry x="18" y="33" width="203" height="746" as="geometry" />
        </mxCell>
        <mxCell id="fiCCbxS_e87EwkZndzHB-7" value="" style="rounded=0;whiteSpace=wrap;html=1;" parent="1" vertex="1">
          <mxGeometry x="570" y="145" width="120" height="430" as="geometry" />
        </mxCell>
        <mxCell id="ZKWChWq3ZsPt71wJ-CPw-3" value="&lt;p style=&quot;line-height: 60%;&quot;&gt;&lt;/p&gt;&lt;pre style=&quot;box-sizing: border-box; line-height: 1.4; font-family: SFMono-Regular, Menlo, Monaco, Consolas, &amp;quot;Liberation Mono&amp;quot;, &amp;quot;Courier New&amp;quot;, Courier, monospace; margin-top: 0px; margin-bottom: 0px; padding: 12px; overflow: auto; text-align: start;&quot;&gt;&lt;font color=&quot;#e6e6e6&quot;&gt;openstreetmaps &lt;/font&gt;API&lt;/pre&gt;&lt;p&gt;&lt;/p&gt;" style="rounded=0;whiteSpace=wrap;html=1;" parent="1" vertex="1">
          <mxGeometry x="27" y="166.1" width="141" height="46.9" as="geometry" />
        </mxCell>
        <mxCell id="ZKWChWq3ZsPt71wJ-CPw-4" value="&lt;pre style=&quot;box-sizing: border-box; line-height: 1.4; font-family: SFMono-Regular, Menlo, Monaco, Consolas, &amp;quot;Liberation Mono&amp;quot;, &amp;quot;Courier New&amp;quot;, Courier, monospace; margin-top: 0px; margin-bottom: 0px; padding: 12px; overflow: auto; text-align: start;&quot;&gt;&lt;font color=&quot;#e6e6e6&quot;&gt;Open Data API&lt;/font&gt;&lt;/pre&gt;" style="rounded=0;whiteSpace=wrap;html=1;" parent="1" vertex="1">
          <mxGeometry x="26" y="313" width="142" height="50" as="geometry" />
        </mxCell>
        <mxCell id="ZKWChWq3ZsPt71wJ-CPw-7" value="" style="rounded=0;arcSize=10;dashed=1;strokeColor=#F59D56;fillColor=none;gradientColor=none;dashPattern=8 4;strokeWidth=2;" parent="1" vertex="1">
          <mxGeometry x="359" y="30.5" width="1005" height="740.5" as="geometry" />
        </mxCell>
        <mxCell id="ZKWChWq3ZsPt71wJ-CPw-8" value="&lt;font color=&quot;#99ccff&quot; style=&quot;font-size: 18px;&quot;&gt;Data Ingestion&lt;/font&gt;&lt;div&gt;&lt;br&gt;&lt;/div&gt;" style="fillColor=none;strokeColor=#147EBA;dashed=1;verticalAlign=top;fontStyle=0;fontColor=#147EBA;whiteSpace=wrap;html=1;rounded=0;" parent="1" vertex="1">
          <mxGeometry x="377" y="77.43" width="161" height="509.57" as="geometry" />
        </mxCell>
        <mxCell id="ZKWChWq3ZsPt71wJ-CPw-9" value="extract_activities.py" style="outlineConnect=0;dashed=0;verticalLabelPosition=bottom;verticalAlign=top;align=center;html=1;shape=mxgraph.aws3.lambda_function;fillColor=#F58534;gradientColor=none;rounded=0;" parent="1" vertex="1">
          <mxGeometry x="450" y="166" width="40" height="44" as="geometry" />
        </mxCell>
        <mxCell id="ZKWChWq3ZsPt71wJ-CPw-10" value="extract_charging.py" style="outlineConnect=0;dashed=0;verticalLabelPosition=bottom;verticalAlign=top;align=center;html=1;shape=mxgraph.aws3.lambda_function;fillColor=#F58534;gradientColor=none;rounded=0;" parent="1" vertex="1">
          <mxGeometry x="450" y="316" width="40" height="44" as="geometry" />
        </mxCell>
        <mxCell id="ZKWChWq3ZsPt71wJ-CPw-18" value="" style="endArrow=classic;html=1;rounded=0;entryX=1;entryY=0.5;entryDx=0;entryDy=0;exitX=0;exitY=0.5;exitDx=0;exitDy=0;exitPerimeter=0;" parent="1" source="ZKWChWq3ZsPt71wJ-CPw-9" target="ZKWChWq3ZsPt71wJ-CPw-3" edge="1">
          <mxGeometry width="50" height="50" relative="1" as="geometry">
            <mxPoint x="280" y="253" as="sourcePoint" />
            <mxPoint x="320" y="233" as="targetPoint" />
          </mxGeometry>
        </mxCell>
        <mxCell id="ZKWChWq3ZsPt71wJ-CPw-33" value="PULL" style="edgeLabel;html=1;align=center;verticalAlign=middle;resizable=0;points=[];rounded=0;" parent="ZKWChWq3ZsPt71wJ-CPw-18" vertex="1" connectable="0">
          <mxGeometry x="0.328" y="-1" relative="1" as="geometry">
            <mxPoint x="10" as="offset" />
          </mxGeometry>
        </mxCell>
        <mxCell id="ZKWChWq3ZsPt71wJ-CPw-19" value="" style="endArrow=classic;html=1;rounded=0;exitX=1;exitY=0.5;exitDx=0;exitDy=0;exitPerimeter=0;entryX=0;entryY=0.5;entryDx=0;entryDy=0;entryPerimeter=0;" parent="1" source="ZKWChWq3ZsPt71wJ-CPw-9" target="-u1k-036uKY5tc66i7Ku-5" edge="1">
          <mxGeometry width="50" height="50" relative="1" as="geometry">
            <mxPoint x="310" y="283" as="sourcePoint" />
            <mxPoint x="608.1399999999999" y="188.08200180467816" as="targetPoint" />
          </mxGeometry>
        </mxCell>
        <mxCell id="ZKWChWq3ZsPt71wJ-CPw-20" value="" style="endArrow=classic;html=1;rounded=0;exitX=1;exitY=0.5;exitDx=0;exitDy=0;exitPerimeter=0;entryX=0;entryY=0.5;entryDx=0;entryDy=0;entryPerimeter=0;" parent="1" source="ZKWChWq3ZsPt71wJ-CPw-10" target="-u1k-036uKY5tc66i7Ku-6" edge="1">
          <mxGeometry width="50" height="50" relative="1" as="geometry">
            <mxPoint x="490" y="330" as="sourcePoint" />
            <mxPoint x="608.1399999999999" y="337.26198375789545" as="targetPoint" />
          </mxGeometry>
        </mxCell>
        <mxCell id="ZKWChWq3ZsPt71wJ-CPw-22" value="&lt;b style=&quot;&quot;&gt;&lt;font color=&quot;#e6e6e6&quot; style=&quot;font-size: 36px;&quot;&gt;Data Platform Architecture&amp;nbsp;&lt;/font&gt;&lt;/b&gt;" style="text;html=1;align=center;verticalAlign=middle;whiteSpace=wrap;rounded=0;" parent="1" vertex="1">
          <mxGeometry x="6" y="-60" width="496" height="40" as="geometry" />
        </mxCell>
        <mxCell id="ZKWChWq3ZsPt71wJ-CPw-25" value="preprocesssing.py" style="outlineConnect=0;dashed=0;verticalLabelPosition=bottom;verticalAlign=top;align=center;html=1;shape=mxgraph.aws3.lambda_function;fillColor=#F58534;gradientColor=none;rounded=0;" parent="1" vertex="1">
          <mxGeometry x="754" y="304.8" width="40" height="44" as="geometry" />
        </mxCell>
        <mxCell id="ZKWChWq3ZsPt71wJ-CPw-27" value="" style="endArrow=classic;html=1;rounded=0;entryX=0;entryY=0.5;entryDx=0;entryDy=0;entryPerimeter=0;" parent="1" target="ZKWChWq3ZsPt71wJ-CPw-25" edge="1">
          <mxGeometry width="50" height="50" relative="1" as="geometry">
            <mxPoint x="660" y="208.4825235309081" as="sourcePoint" />
            <mxPoint x="710" y="253" as="targetPoint" />
          </mxGeometry>
        </mxCell>
        <mxCell id="ZKWChWq3ZsPt71wJ-CPw-29" value="Refined&lt;div&gt;Activities&lt;/div&gt;" style="outlineConnect=0;dashed=0;verticalLabelPosition=bottom;verticalAlign=top;align=center;html=1;shape=mxgraph.aws3.athena;fillColor=#F58534;gradientColor=none;rounded=0;" parent="1" vertex="1">
          <mxGeometry x="869" y="153.5" width="76.5" height="76.5" as="geometry" />
        </mxCell>
        <mxCell id="ZKWChWq3ZsPt71wJ-CPw-30" value="" style="endArrow=classic;html=1;rounded=0;entryX=0;entryY=0.5;entryDx=0;entryDy=0;entryPerimeter=0;" parent="1" source="ZKWChWq3ZsPt71wJ-CPw-25" target="ZKWChWq3ZsPt71wJ-CPw-29" edge="1">
          <mxGeometry width="50" height="50" relative="1" as="geometry">
            <mxPoint x="770" y="403" as="sourcePoint" />
            <mxPoint x="820" y="353" as="targetPoint" />
          </mxGeometry>
        </mxCell>
        <mxCell id="ZKWChWq3ZsPt71wJ-CPw-32" value="&lt;div&gt;&lt;font color=&quot;#99ccff&quot; style=&quot;font-size: 18px;&quot;&gt;Data Datawarehouse&lt;/font&gt;&lt;/div&gt;&lt;div&gt;&lt;font color=&quot;#99ccff&quot; style=&quot;font-size: 18px;&quot;&gt;Serving&lt;/font&gt;&lt;/div&gt;" style="fillColor=none;strokeColor=#147EBA;dashed=1;verticalAlign=top;fontStyle=0;fontColor=#147EBA;whiteSpace=wrap;html=1;rounded=0;" parent="1" vertex="1">
          <mxGeometry x="1157" y="76" width="184" height="507" as="geometry" />
        </mxCell>
        <mxCell id="ZKWChWq3ZsPt71wJ-CPw-38" value="" style="endArrow=classic;html=1;rounded=0;entryX=0;entryY=0.5;entryDx=0;entryDy=0;entryPerimeter=0;" parent="1" target="ZKWChWq3ZsPt71wJ-CPw-25" edge="1">
          <mxGeometry width="50" height="50" relative="1" as="geometry">
            <mxPoint x="660" y="324.7209700669887" as="sourcePoint" />
            <mxPoint x="760" y="353" as="targetPoint" />
          </mxGeometry>
        </mxCell>
        <mxCell id="ZKWChWq3ZsPt71wJ-CPw-39" value="Refined&lt;div&gt;Charging station&lt;/div&gt;" style="outlineConnect=0;dashed=0;verticalLabelPosition=bottom;verticalAlign=top;align=center;html=1;shape=mxgraph.aws3.athena;fillColor=#F58534;gradientColor=none;rounded=0;" parent="1" vertex="1">
          <mxGeometry x="873" y="292.5" width="76.5" height="76.5" as="geometry" />
        </mxCell>
        <mxCell id="ZKWChWq3ZsPt71wJ-CPw-40" value="Datawarehouse" style="outlineConnect=0;dashed=0;verticalLabelPosition=bottom;verticalAlign=top;align=center;html=1;shape=mxgraph.aws3.athena;fillColor=#F58534;gradientColor=none;rounded=0;" parent="1" vertex="1">
          <mxGeometry x="1188" y="302.3" width="76.5" height="76.5" as="geometry" />
        </mxCell>
        <mxCell id="ZKWChWq3ZsPt71wJ-CPw-41" value="" style="endArrow=classic;html=1;rounded=0;exitX=1;exitY=0.5;exitDx=0;exitDy=0;exitPerimeter=0;" parent="1" source="ZKWChWq3ZsPt71wJ-CPw-25" target="ZKWChWq3ZsPt71wJ-CPw-39" edge="1">
          <mxGeometry width="50" height="50" relative="1" as="geometry">
            <mxPoint x="760" y="453" as="sourcePoint" />
            <mxPoint x="810" y="403" as="targetPoint" />
          </mxGeometry>
        </mxCell>
        <mxCell id="ZKWChWq3ZsPt71wJ-CPw-43" value="" style="endArrow=classic;html=1;rounded=0;entryX=0;entryY=0.5;entryDx=0;entryDy=0;entryPerimeter=0;" parent="1" source="ZKWChWq3ZsPt71wJ-CPw-39" target="ZKWChWq3ZsPt71wJ-CPw-53" edge="1">
          <mxGeometry width="50" height="50" relative="1" as="geometry">
            <mxPoint x="930" y="443" as="sourcePoint" />
            <mxPoint x="980" y="393" as="targetPoint" />
          </mxGeometry>
        </mxCell>
        <mxCell id="ZKWChWq3ZsPt71wJ-CPw-44" value="" style="endArrow=classic;html=1;rounded=0;entryX=0;entryY=0.5;entryDx=0;entryDy=0;entryPerimeter=0;" parent="1" source="ZKWChWq3ZsPt71wJ-CPw-29" target="ZKWChWq3ZsPt71wJ-CPw-53" edge="1">
          <mxGeometry width="50" height="50" relative="1" as="geometry">
            <mxPoint x="977" y="337" as="sourcePoint" />
            <mxPoint x="1120" y="270" as="targetPoint" />
          </mxGeometry>
        </mxCell>
        <mxCell id="-u1k-036uKY5tc66i7Ku-15" value="" style="edgeStyle=orthogonalEdgeStyle;rounded=0;orthogonalLoop=1;jettySize=auto;html=1;entryX=0.5;entryY=0;entryDx=0;entryDy=0;" edge="1" parent="1" source="ZKWChWq3ZsPt71wJ-CPw-45" target="-u1k-036uKY5tc66i7Ku-21">
          <mxGeometry relative="1" as="geometry">
            <mxPoint x="1463" y="505" as="targetPoint" />
          </mxGeometry>
        </mxCell>
        <mxCell id="ZKWChWq3ZsPt71wJ-CPw-45" value="&lt;div&gt;&lt;span style=&quot;background-color: rgb(51, 51, 51); color: rgb(230, 230, 230);&quot;&gt;Tableau BI&lt;/span&gt;&lt;br&gt;&lt;/div&gt;" style="shape=image;html=1;verticalAlign=top;verticalLabelPosition=bottom;labelBackgroundColor=#ffffff;imageAspect=0;aspect=fixed;image=https://cdn3.iconfinder.com/data/icons/fintech-icon/128/11_Data_Visualization-128.png;rounded=0;" parent="1" vertex="1">
          <mxGeometry x="1399" y="278" width="128" height="128" as="geometry" />
        </mxCell>
        <mxCell id="ZKWChWq3ZsPt71wJ-CPw-47" value="" style="endArrow=classic;html=1;rounded=0;" parent="1" source="ZKWChWq3ZsPt71wJ-CPw-45" target="ZKWChWq3ZsPt71wJ-CPw-40" edge="1">
          <mxGeometry width="50" height="50" relative="1" as="geometry">
            <mxPoint x="1250" y="343" as="sourcePoint" />
            <mxPoint x="1300" y="293" as="targetPoint" />
          </mxGeometry>
        </mxCell>
        <mxCell id="ZKWChWq3ZsPt71wJ-CPw-53" value="to_dw&lt;div&gt;(1 Off)&lt;/div&gt;" style="outlineConnect=0;dashed=0;verticalLabelPosition=bottom;verticalAlign=top;align=center;html=1;shape=mxgraph.aws3.lambda_function;fillColor=#F58534;gradientColor=none;rounded=0;" parent="1" vertex="1">
          <mxGeometry x="1076" y="309" width="40" height="44" as="geometry" />
        </mxCell>
        <mxCell id="ZKWChWq3ZsPt71wJ-CPw-54" value="" style="endArrow=classic;html=1;rounded=0;entryX=0;entryY=0.5;entryDx=0;entryDy=0;entryPerimeter=0;" parent="1" target="-u1k-036uKY5tc66i7Ku-7" edge="1">
          <mxGeometry width="50" height="50" relative="1" as="geometry">
            <mxPoint x="670" y="505.12568311343557" as="sourcePoint" />
            <mxPoint x="740" y="683" as="targetPoint" />
          </mxGeometry>
        </mxCell>
        <mxCell id="ZKWChWq3ZsPt71wJ-CPw-55" value="" style="endArrow=classic;html=1;rounded=0;entryX=0;entryY=0.39;entryDx=0;entryDy=0;entryPerimeter=0;" parent="1" source="ZKWChWq3ZsPt71wJ-CPw-53" target="ZKWChWq3ZsPt71wJ-CPw-40" edge="1">
          <mxGeometry width="50" height="50" relative="1" as="geometry">
            <mxPoint x="1300" y="473" as="sourcePoint" />
            <mxPoint x="1350" y="423" as="targetPoint" />
          </mxGeometry>
        </mxCell>
        <mxCell id="fiCCbxS_e87EwkZndzHB-1" value="extract_demogtraphics.py" style="outlineConnect=0;dashed=0;verticalLabelPosition=bottom;verticalAlign=top;align=center;html=1;shape=mxgraph.aws3.lambda_function;fillColor=#F58534;gradientColor=none;rounded=0;" parent="1" vertex="1">
          <mxGeometry x="440" y="499" width="40" height="44" as="geometry" />
        </mxCell>
        <mxCell id="fiCCbxS_e87EwkZndzHB-3" value="10 minutes&lt;div&gt;&lt;br&gt;&lt;/div&gt;" style="outlineConnect=0;fontColor=#232F3E;gradientColor=none;fillColor=#E7157B;strokeColor=none;dashed=0;verticalLabelPosition=bottom;verticalAlign=top;align=center;html=1;fontSize=12;fontStyle=0;aspect=fixed;pointerEvents=1;shape=mxgraph.aws4.eventbridge_scheduler;rounded=0;" parent="1" vertex="1">
          <mxGeometry x="405" y="279" width="37" height="37" as="geometry" />
        </mxCell>
        <mxCell id="fiCCbxS_e87EwkZndzHB-4" value="" style="endArrow=classic;html=1;rounded=0;entryX=1;entryY=0.5;entryDx=0;entryDy=0;" parent="1" source="ZKWChWq3ZsPt71wJ-CPw-10" target="ZKWChWq3ZsPt71wJ-CPw-4" edge="1">
          <mxGeometry width="50" height="50" relative="1" as="geometry">
            <mxPoint x="628" y="519" as="sourcePoint" />
            <mxPoint x="107" y="520" as="targetPoint" />
          </mxGeometry>
        </mxCell>
        <mxCell id="fiCCbxS_e87EwkZndzHB-5" value="PULL" style="edgeLabel;html=1;align=center;verticalAlign=middle;resizable=0;points=[];rounded=0;" parent="fiCCbxS_e87EwkZndzHB-4" vertex="1" connectable="0">
          <mxGeometry x="0.2478" y="4" relative="1" as="geometry">
            <mxPoint x="12" y="-1" as="offset" />
          </mxGeometry>
        </mxCell>
        <mxCell id="fiCCbxS_e87EwkZndzHB-10" value="Refined&lt;div&gt;Demographics&lt;/div&gt;" style="outlineConnect=0;dashed=0;verticalLabelPosition=bottom;verticalAlign=top;align=center;html=1;shape=mxgraph.aws3.athena;fillColor=#F58534;gradientColor=none;rounded=0;" parent="1" vertex="1">
          <mxGeometry x="862" y="460" width="76.5" height="76.5" as="geometry" />
        </mxCell>
        <mxCell id="fiCCbxS_e87EwkZndzHB-11" value="" style="endArrow=classic;html=1;rounded=0;entryX=0;entryY=0.5;entryDx=0;entryDy=0;entryPerimeter=0;" parent="1" source="fiCCbxS_e87EwkZndzHB-10" target="ZKWChWq3ZsPt71wJ-CPw-53" edge="1">
          <mxGeometry width="50" height="50" relative="1" as="geometry">
            <mxPoint x="1050" y="533" as="sourcePoint" />
            <mxPoint x="1100" y="483" as="targetPoint" />
          </mxGeometry>
        </mxCell>
        <mxCell id="-u1k-036uKY5tc66i7Ku-2" value="Open Data&lt;div&gt;Demographics&lt;/div&gt;" style="verticalLabelPosition=bottom;html=1;verticalAlign=top;align=center;strokeColor=none;fillColor=#00BEF2;shape=mxgraph.azure.website_generic;pointerEvents=1;" vertex="1" parent="1">
          <mxGeometry x="50" y="474" width="81" height="74.5" as="geometry" />
        </mxCell>
        <mxCell id="-u1k-036uKY5tc66i7Ku-3" value="" style="shape=image;imageAspect=0;aspect=fixed;verticalLabelPosition=bottom;verticalAlign=top;image=data:image/png,iVBORw0KGgoAAAANSUhEUgAAAFQAAAA+CAYAAAC1BDz9AAABP2lDQ1BJQ0MgUHJvZmlsZQAAKJFjYGDiSSwoyGFhYGDIzSspCnJ3UoiIjFJgf8bAySDBwMcgxGCZmFxc4BgQ4ANUwgCjUcG3awyMIPqyLsisdQKrtl0pbt50asPSXzKPn/zGVI8CuFJSi5OB9B8gTkguKCphYGCMAbKVy0sKQOwGIFukCOgoIHsKiJ0OYa8AsZMg7D1gNSFBzkD2BSBbIDkjMQXIfgBk6yQhiacjsaH2ggCbm4dfuCEBh5IKSlIrSkC0c35BZVFmekaJgiMwdFIVPPOS9XQUjAyMjBgYQGENUf1DBxyGjJp1CLH6DqBuKQYGpqkIsVBJBoaVXQwMorMRYkqmDAzCwDDb9bcgsSgR7gDGbyzFacZGEDa3HgMDy/P//z/6MzCwPmRg+P/h///f6v///xUHij9mYNj8CQA6C1+twDaC8AAAAIplWElmTU0AKgAAAAgABAEaAAUAAAABAAAAPgEbAAUAAAABAAAARgEoAAMAAAABAAIAAIdpAAQAAAABAAAATgAAAAAAAACQAAAAAQAAAJAAAAABAAOShgAHAAAAEgAAAHigAgAEAAAAAQAAAFSgAwAEAAAAAQAAAD4AAAAAQVNDSUkAAABTY3JlZW5zaG90EHJjvgAAAAlwSFlzAAAWJQAAFiUBSVIk8AAAAdRpVFh0WE1MOmNvbS5hZG9iZS54bXAAAAAAADx4OnhtcG1ldGEgeG1sbnM6eD0iYWRvYmU6bnM6bWV0YS8iIHg6eG1wdGs9IlhNUCBDb3JlIDYuMC4wIj4KICAgPHJkZjpSREYgeG1sbnM6cmRmPSJodHRwOi8vd3d3LnczLm9yZy8xOTk5LzAyLzIyLXJkZi1zeW50YXgtbnMjIj4KICAgICAgPHJkZjpEZXNjcmlwdGlvbiByZGY6YWJvdXQ9IiIKICAgICAgICAgICAgeG1sbnM6ZXhpZj0iaHR0cDovL25zLmFkb2JlLmNvbS9leGlmLzEuMC8iPgogICAgICAgICA8ZXhpZjpQaXhlbFlEaW1lbnNpb24+NjI8L2V4aWY6UGl4ZWxZRGltZW5zaW9uPgogICAgICAgICA8ZXhpZjpQaXhlbFhEaW1lbnNpb24+ODQ8L2V4aWY6UGl4ZWxYRGltZW5zaW9uPgogICAgICAgICA8ZXhpZjpVc2VyQ29tbWVudD5TY3JlZW5zaG90PC9leGlmOlVzZXJDb21tZW50PgogICAgICA8L3JkZjpEZXNjcmlwdGlvbj4KICAgPC9yZGY6UkRGPgo8L3g6eG1wbWV0YT4K+aH6pgAAABxpRE9UAAAAAgAAAAAAAAAfAAAAKAAAAB8AAAAfAAAN/+O7AY4AAA3LSURBVHgB7FoHUyLZGj0kERFJgjlHEHPet/vf325t7ahjwgBmzAlUFASJvvPdlnF2ip33nHX31VZNV6HYffv2vec73/nO16Wuzzf1XHzGy6Hjb/l8P74VAd13QL8VuvL3fQe0PC7ffPY7oN8MXfkbvwNaHpdvPvsd0G+GrvyNbwD0kxX4bKaSIyh37bNhv3MOX44tzfH5+H/ud12/b5q26RnaNr9mm2REaVQJBB3PaOe1KxoQpau//0vOvs6hXZOfX3vm66h/yjedLzD7XCwUoHnRr23uFQzdJ8Z9B/TLQJcB9Mshpb81DgqEX7JKWKpdff4M6qK68Rl6XpMQlHhbGiP3lAJYulZ61l/1+5UU5Z/w+To+/15+dLmzuv6BGTK0+AJIuUk0sOSKBmZpGu1MSQZKkAICpEClAa990/NvvTovd5fm0YIg58s9V0a+9yFPlPVpwf797LIqbU+vwX/7uggoNbSgbe2Z91NOyx7a42Qh2kO1QaUHCpylRcoEJUDlmwAmLBVQS2Bq82gb+LsA1dYlYOo+rVXbReln8WWtpb81YEt7LJ39+u8/AejrgwRsbbklUGXRWmS+BqgGLwHVvc719eX+2atc03Ph/w+oYhZ/6HWyIG1TOr0BBoOB5+RvMlBXZGFjcZPqViyQ6fIh0M8aOzXOahxQ8/EuyYiiuq4m0Sb+S39KeF+D/eWj/jaGynb1RM5o1MFkNMFcUQFzpQVmcyXPEVS9LLOIXD6H7NMTMk9p9clmcygQ4GcYoec4udfAOXQ8VyhwbK7A3/z+XGI2lZZsNXA+vdEIIwMmQSkwQIU8P0Vq/ctYSUdZk4HzGgxG3mNURC9yjKyjkM8zWARQp+cYIypMJpgq5DfXznnlkMpRoMPJ53LI5PLI8h55jrx+e5W+twX7v6a8TKeTTRr1qLKY4XK6UOuphdvlgd3uRGUlQTUZ1GZT6QTubm8RvbpE9PoS9/cPyGTz4M2wVtngcrthqTSjyA3H43e8fo+nDDdBNsshIAk4FkslbLYaVFZVkewFpNJpPCYSeGKwCkXOp8bqUWGu4LxWVFfbUGW1qnVmMk9IPDzgIfGgwDGajGoup4vrdrnh4Roc9hoFWD6fxWMqxbXEEY1GcRu/RzKZRCaTIdAMssrGdwRUMdPAhZOR1bZq1Hu9aGttRQs/9Q0NBFUAsigGFMmcx9QDri4vcXJ4iIODPRyfnOD+IUmkDHC6vejp7obbaUc2m8Hx0RGOjo95/V5tQOCUzVut1ah116KxsQm1Xg/yZM3tzQ3Oz88ZpGukCYCAquOcsiYv19TY1IzG+gblpSVQp3zuNQMqh63GjibO1dzSwo+Mq4eLRBBpygmgj0mOvUYkcoh9fs7OzhTAWYKqsfSdAFXMZOqZyQK73YFWgjgyNIS2tlZ4vLWw2W28Zn7RUaYo069YyKsN39xEETk4RHAtiJOTM6TJUrenDqOjY+joaIWOrAtvhrAa5PXTI8Tv44QTsNpsqPPWoaurGwMDfrS1tyqmnJ2dY3NjE1vhsAI19ZRSqex0u9DZ2YlAYBgDfh/S6SccM0jhUAhXVxdco50EaENffz+amhpQQ3DNFWamNNfK1FYawQcL8+UZy6urCIU2GbwzPCZTKvUl0G85yqa8moI/RBsl/dy1HvT29mF6ahJepoyRWlR4ziNHjRTdMbJAVXGcnRuoqalWm725ucXi4keEwlu4jt7yvBOTM9MYCvjJahNCGyHMz88hvB3m5i+V5sn97W3tGBoawdT0BIHtRJ5ae3R4go+LS1haXCRgR3iglFAaUVdXj4FAANPTM5icGMfVdZRghrG+vqZY1t7RAb9/AD09vZQHA5KUjft4gtcSyGWy1H/WA65bakIykURwc1MF40wB+vjXACosdDqdaGlpRS9TtsgC8cA0vb2L447plUqnUFlhUmna09NDZg2Qhe0qEFtbWwR1GVu7u8hTkkaGRjE1NYbaWjfOT06xvLyEzdC6Sv9EMkGts6GzoxNj4xOYnf2Bz2xQ8iCArqwEsbyyhIPIAeLUaR2lSGRhZGQEP/30I4aZPSEyWMbt7e6pwjYxOYF+nw/2GgdT+gBrzIhIJMIARlk0n0gYAyzWKtRQr6XA3t7d4ToWQ4LAC+Dvn/LCUlZRi8XCRdXA5XCoIpFmFU+lWCgIpqSLkele88KuwcFBDA8PKq29vLrCymqQn3Xc3d0T6A7MTE8TtHben8AmGbG8vIid3R1u4kFpcjfZNDI6gtGRMdTXexjAIi4vr7CxvoHFpSXs7m7j5vZGFcPOzi6MUUYmyM7GpiYEg2tYW1ujzBwzY6oUc7spHzpm2vrGGhY/LilApXDmWNXF/krVl8JaQeI8ZXJIP2VUEJX9e++iJGVOKrykvtHE4sQKLEfJUoiNkQIjJl601kv98/v8GB8fRWAwoKrzmgDxcQWn5xdwUy5mmfYBv5/pZsT+/g7mFuawRc2TSlvf2ABfvw+BgQB6enuVdsvzhTF7e3tYXV0mozfpIq5YbGrQ1+fjs8bhIwslk1aDqyplL1kYRT5ECrqosYJcKLxJ9q4qbb+lHOVyWa2Scz+yPx1JIYVdukaxW1qFl90qAZQv/9NRVkM/v1PrgV4Nueb9xCPS94lPJKgiA+IfRRq6KQtTk+Nk2Sj1r0AWhjFPZhwcRF5YM42xsWHYbXacnp3i48d5sieIGG1LS3MLJSNAoFhEmpuUFstmxYfGYjcIh1nIVlfoHo7gYBr7GZixsXF0kKkC0NLSMra3wogzdd0eD2VjRs1VXW1VxWqDui1yIJVcgpSmHctms6qYCoayS60d1hDQKTDfGVCZWqbUG3RMD4OyUGZ6SXOFBSayQkx4gdVdDLeNlkeq6tBwAINkaJaGWQCdm19kqlLXKB9TU1OYpLbVk813dzeUg2Wm6io3eUIn0abY2dXVA4fDTq1OvBRGiwraCe3Qx4UFSsS2qth+34DSUHEgcXraubnfsLOzwwr9iAbauunZaYwMD9MuNeKJDuDo6ITr2Ceo+5SRS9wy9R/oWQXYHItrnkKv3g2rVJd9y87fGVCZzsACUMUoN9DzCXOamlrQwPR0ONwKJPGgBUkhLqqSFdNLW+XxurngOK3TOuYXFrG1ta2M9uTkJH6YmUVnVydST0mleZub6/SvFwrQfqZ8E32lpLpooZh3Ly2XuIirq2sydBV7lAqxcv2Ul+HBIdUwHB5G8PMv/1bWStgnTcTQ4DA/AfT29XJNdCes6mLa4/EH3Nzc4eKcnplBOj4+xdn5KWIEOPWY/iQF7waoigs3JOltom8TA91A4+z39aK9vR31tCs2mwN6CnqeXc8zU1taySINt4lSYCe77DVW2pgYVlhZ58lQqfiyGdHHmZkpMnhQGfmdnS1eC1EXmfI03x2s8g5Kh3QseyxW0uLKeTc9p9ilLab0IRsHcQSis+IspPFY21jH3IfflNamaNat1dU09M2cr4NetYNBaiKoHrhcTtq2KjKyqDIgFrsmqKfU8wgDFcH5xYVirVhCTUffgaEKUAWmSaWWLMbf78fE5CiNt0d1RslkmtX2jlqUJDu1wlRB8O1s6+rIUAc7IsUoVt75hSWECah0OR0MyPgY7dP0FEGqpbE/5mb2adivmKaNtEKNMLHvlr9DLFaVBLSDgDTwfJ4NwhF9qBhvKzNGUr2hoYkWKEMHsED/GWSXdKpSWN4xSDvqdLhIgDp4+ZH5RVaamQHVDIjZbGL+scNLPOLo5JzSs4ENOg/xutK+ynuGtx5li5IAqmeai52QjQwEBmlNJphePvUi4YJdiEQ0EjlWrMmx0hvZ69ew8jZTEnq7u9ieNqtCElzbpCmnF93eVm2etK+ir//64UcFyO1dDKenJ7hkOntZSORdQYbzHbINlIpeSZ0WhrW3d6KS9k0YFWMrKlVcpMDCfj/G1vHD3AfV7sZuYpC2UQ55Ayt2SNpZ6fedToe6R4Lgrad8sXuSj50dVIoaG1wLY2FxkYFZxzU1VuZhzX3TUR5QIiqv5iRtpA2cnp3FDItJY70LB/sHNNji99YRoW6lyDp5gWEioC6mZU93j2LgQGBAWaH1jTCWllewvbOrXnA4mXK9Pd2swLNqrLztidJMR6PXymALI6Uf32YAQqENprOJYHYoi+RhMNKpRwbmkez2MIA2trUZRPb2CehvuGD1viezRIZKh2ixQV41krHy9spEeaiyWPmCx4NuriPATsvn76cHdiJydIaFpSAWPnxgAYvwOXxvwDdibzn+EFAj087hcEKKhGx+jGlqt1kQXF1j1Z7T+vDjE/WCQR4or8ekcvvZWop5F3N/S+EP0odqDGX1ZbGwWi1oZdcltkraQielQV6Z3VI+5OVInob7/OKcfnKTFXtb6aMA6uNYuU8yR8aLCxDvGI3G1Ni5uTkWmhgD/MhUfQVBABUx1Lwzy4wATJ23sS40c74AO7txZl9/fy9u7hIsemv49ddfsUsCJJMMzvsAylRhJF18m9RH0zw9M0P7MYRqSwUBDRLQeepNkFbnVLl8vbC5isWD+jQyMsyefxx9LBhRGmjplObmFukhw3xdF1fAiwsQAz84FGA6d5FpDlWwpGgJKHtsVTdY+Q+PDukaKmnF2hkoVmvOKRpdYTKr6i86J62kGHrpuB5onXK5HBNdXjeSlWSmgC6HdFzySk79qyFBlQ7JW+clkP2YZPYNc92Jx4xyJb/8/DMBFYlicN4I6H8AAAD//9LWziQAAA6fSURBVO1ZB1MbWRpsZQlFECJnsMm213F37/78XV3dOWJjYxvbgIkGESSScrruNxJINmCx572qrfJQw4xm3rz5Xn/9xbFNTD+qlEsVaKvYuPPUxqPT5UQ4FMaNmxP429//hocP7qGtNYjF94t4+vQ55l68xOraGjgUPr8PHbEYJqemcO/+PUxPjKGjsx2JgyRezC3g3/95itevX2NvPw47x0fCYQwNDWFmZgZ3frnN80G4+b6D5BGWPy3j1auXmH/9EvHdXV53o6e7F7O3buHevbscO4BgMIh8vog1vv/lq1eYm3uBDx/eI5vJwm63w+trQSgQRCAQgMvtRqVcQTqTRjqdRi6bQ6lURgvHDAz0Y3p2Fg8e3MXwyBC2tvfx5OkL/Osf/8Tq58/IZrMGD2HT7Ga7EFA+bXfY0eL3Y5ALv//gIX57dB+jIwM4ODjAEhf9YfETtja/GPRbWnyIRFvR19trhOzuiiEUakEhX8Lih2U8ppBzcy+xubGOcjEPje/u7MbkzBQePXyI6ZkJRCJhbO/s4PX8Wzx/9pwKeIVEMgGH04n29hhmZ2bx+++/Y2p6HG1tbTgk+AsL7/Hk2WPME9SN9XUUiwW43R6+O4Surh709/UhGm2Dx+tBJpPB6WmKIOUoQ9mQoIfyjo4Mo3+gjwRy4f3iEp48kawvEN/eQbFQahbHs3FXAirhYh0dZOlN3L17B3fv3KJm3cjmcjhKnuDkOI0itQ0H5yNVC/k8yqUCfF43WRgkcAHsxPcxv/AOr16+wueVJY7JwUPWtEYiGLtxg+y4j9k7s4i1t2JzaxtvXi9w7EtjCUdHh0bQCMeOT0zit19/JfhTBKkVO7sHeDM/j2fPyc7F99jf3yMTy2SkB2EqZ2BgANPTsxgbHeEaonDYHQS8aEAql21weUgYKtbn85GxFezsxMn2t3j95g3WPq/i+PiIa5Hlygab3y4F1Ga3UWsO+AlKO815dGQUv9yepclJ61GC5kepbEeGZnFyeoL9xB42yMA9Cma3VxBtazVMSqWzWFndoEl+4v1VA6iTZtnS0oLe3j4CNIOb4+Ockwz9EsfHT0v4+OED1jfWkEqlaXIV+OlS+vuHcGt2BmM3b1AZYeztHZD9i3j/9h3HbtCcT81Yp9OFAC2rp6cXMzTnCSpikG4iEgkZ9+FyuOjS7ChX8mRrBsnDQ1raDj5+XOZ8H+nG1iFF5nN5+j8B+QMAPZuGc9ltNjjo34IUsruri2y9gbGxMWOyYsP+/gGZtYnV9RWa3RoFTMLtcBLMCML0lfliCUma50HiEGkCVC4XYCNIcimBQAidNM32WIdhihayt7fHPY7jIzKEjNOCnDR7+fOOji60d8TgD/hpwmnEqbzt7S/W2IrGWsu3k40t/hZ0dnair2+AJj1kzttaWxEJBWkhLhyfHGE3voP19Q2sra5hY3MTSb5TBCnRJVhg1mY0Uzf1zzYx9ahSotOubedn1hXpx27Y6kSAJtJG5kUirWRNEA4CJ990cnKMw+NDHo+Qp0BSgs/ngcfjQYmRLpcr0E0UUKCPo10SoooJfC6nGx4GB6/XZ3xlni5DQGnOXE4BgeP4J4DcHhfdjZ/ztpiAWaL5KsikyExrbG0FBJXvd5GpigHBQJA+NUyf2UKr8lImN1xUpoJTOp0ysh8RyJOTU2T5foFZg0Pvvj5DDaCWdq2HL6Y4ZeSibWSfyyxIYErwIlmkxRVKEqZEvEpGDAeF1i5I5IoM2aqS2mAxz6BK85cJai4xUs8rCpcrtYBgLcrBMWK1do0X2OWSxpbqxtZApRI4nxThcDrgpMx6zsF3OUgOZRplKrakd1HJBc1D2SUjp62SU3D+IUAf1jH0qgm+5m5NeOtYu6sZJJJ15Kk0oV/m2HhPwpf5r/as7v7Zm6Xi2luIoO1rMhFuCmStoCp7bXgTR5p8PaDSHfVi5tE/bmZy88/6/Rf+T4LSH7sYnFxwaXc7aW1krJPMJ+tBo1BkL5KxOZq/3JTckKygWa3bxicfMu+tAlY1PbtDpuKEzEz3ZBplmrU1jGN/5PaDp7tMNMUBL31oKwNTRyeDW3uUextaoxGEglYBUGLenE5lGOWPmeRvY40Ba4dHxYiy0sMmNgvQMy8sv2NnIuxjJA0YZ+4kuKoYUkyKlZrk8wX6GvrK/xMQTazhu0OUAno9XkQIptIpVUhtTP3a2sK8Fmbl5ed9HwOZm/7VxqCYYqq3ivn5Bbx7t2gyCRUNzbDUdpMMFQNl6iZFYrDxMzJ2UYvDwyMIhUOmwojvxlk9MEU5OWGEVGohxjIwcK86h+8urH5Aoz7+yAz1s119ruAYZmbS3dWN/sEB9Hb3mBzbQVNXoFVaplK0M9bJNK6DZauPadQXPH48x0rsOSvDjyaTaBLQBwRUdFb0E0MdTE281F7UlJ29ff3UYMhExWQiwdwtjv2DfVZKSZoCwWXVVCoR3KvXdMVd47CvuP+/3xJD/f4A8+IIWpn2hWniktfh4Hq5i3ou9gz6ewcwOTGOkdEh5tMnBPQZHj95iuUlAkoSNWOVZGgjoEpfrAaDjz6mHQODQ3zBKHppKk6axNFRkqDuIk5glYAnWW+nUinzwiKBtVInMrdpiH8koJeolYAqCMmHqtRsoUtzM0f2MLclf0xOms9n2YTpw+zsbe4zTPBzePaUdT3L4LW1VVZO1waUCbyMl4BqiQpMSqJjLDsHhgjq8Cj6+vuMaUij8quJ5AHLtk36mB1TS6u6ybCcU9lWoK/VOLkFs8yqehuXXANTx2Y3znfBcHOp7roylbOdcUFABlmZhUNkaaTNlM9e9hxyhSx26c722NmKtXdgYnwKk5OTOE1n8OLFHN6wto/vslHCaH8WvK8QtY6hBLFOID2jBFqVRYj+p6enB1OT06y7JzA0NMQyMGpMYHNzgyaxhKXlJdbiO5BbkCtQFVKgn5WvFXMVJQ24ArhaJkqFULpiVHiRlI3wn4/gddu392RZMm9FdCXxakE6mdi72W1S2dnJuNDT1ccu1BDkyjiEYO6yz/AWn5dXTAU4PETi9PazlZhg61FtwU/GKosFBmOR4tvXnoullZyb/LeAaqFy6Gpt+WgmIdbmfRRkZHQM4wR2dGyY/tXDqF9kgySF5MERmXrIFt8+Nc6dHaB91uZJ+tt0iiUiO03G5xYIsAFVYF4GqCSvsrtB5OoPA+h5KmN8P0tjBRfFgCBr9ihTo87ODnR2d6Gbe0csyv5BkMRxYi+eZPfrMz59shoxsqibYze4rkk2boJYWVnB8+fPGO0/m1xUnSwDaE2WS4BtBFSDKeg5Ua0zUxpSnS5qXK00aXpwaBg3xkbZeOhGjP3PCE1JLbIszV118SGbJGqcJBMHSCSSbGCItRk2ejOWW8jSLbA3WiS4RZZ9CmxisYCuMVmlqAgsv24k4Q8n36EumMU+p6nZXWx2qB/gZ72upnKAzRNlJ0qNYgQx2holSF6qp8wsJUX/r57uKpvIK/jyZcvkmQq8t2dvYYQMzdJfqvP0ZmGBPdpt0xa0ZKpTcbOA2i4wpZpStCwnHbm/xW/MQ6lV/0AvRkZGMTo6QjfQTnZ4SDoWBKwuBFhejRGTx6ZN/zTNrrry2dPTU5PbZpnzaQGKovkCATb9ADKTubFJ54ikTFmVjCKyh9HYq8DC3RzJSnWfgoGwAVTslAwKQAJaKZEUcsxkfZuBdG1tC8vL60za15CgwjPZlLHATnay9AWhg50vZTIf2URfY9P6kO29xlhQBfV7gIoBtS5QDcDLjjIvsVXmJRaorzmsznd/L6sQJcxRViRhUxiIGSoO1NxNpXIWwDl2z5kZZAhqTkGMEVagq8wToKZtR3+ldE5yGd9IUHR0szmtACPgxEof+6qGmUyLlPpojNiU45wKkgmlenQ7W1tfCNAW88ttsnKPQCVMbqmmiTr8WkM/W32af4txYWNrC0eHR6YDJRkMQwUIgTSOqBlA5c0ucva6/PUmttoovJy+FhWiyUSZZqln2stsYHBg0HTNY7FWBFiJeDxkCoOF/rTVhJISaeeGkcavVh2/5NUijKIJprXxKPM3Bx3r54OpwbN0KUfMIfU9ap0M+0yzXllepunGjStKZ9ldKtD4Vcxwfgfdh2JDBz+zeMhqtR9VxKiAMW3NilAx0loiNAuoRittqpwJbz3f+P88CNSua1HynSbPo/nJh0njrfzu08UGb3usnd37sAkQUTLXH2DQIGuVaKu/6iPTVbGcbV9rvoqlLpOwTMeKZDLdSUE7z+kuTsj0BL916XuXAuL+vuW/a7/lw9U3tcpmwWNNKmWK0cpkRAqdK5orQ9E7KnQzWp90Xgep+X0m71cndUGJJmXArFtcw+CGKc/uGNEUyPisfJxhrd1pGsJy9Ora6wNcO/2rmhKqm/XVUp8k1IUPyN+x6+OgW9CCDOc4l1kI31Lh3GJqmSwusvmbIcMydB05BjW5iZPTtAmAYpXySVPFHR4bH51hAzpLgEyxUQ14Z4Kbk6oFKNXSO0UovcsERuHmoBwaKOirmv5a4Y0T1qdN9YBaGmwcqykvm43Xz/qK1lMCR5FYPkkf+9Qt95KRbgYKDxPqIJmszyo+VizavfSJ8oEuBhE1hMVavU3NZrXTxEalNkq70pkcMvxWpW9OAk2ZQzqrz8Ts9JvCQmatrIH+2IhTW49mrF9D7bxxlAC0QGQZVXtU89SG6/yS7RKG1s9Se9IS5so5v8kQxDTKZHbrXLMpt3XRzLwEWwDq27sAd/KotqGuKTHXuxSYxDAFNe15A2yewGpXkGMg43cqpbVilzYdqqfm9zkqum+Nqd6o/v4WUIu7tFaLot8+dj5Bw9k1AW149po/LH5LVTJnU9EYM6cPpq/Spwq5C+W8PDNjrOXzuaoZyuxNgl1NqQwD2RCuAXmxQPXkuAhQPVXzqjoXuDJxPSf3V/88f35nuwag35npL3H7MkBrsOn+T0CvocqfgF4DrGaG/gS0GZSuMeYnoNcAq5mhfz6g/wVp7N8J8FMKeQAAAABJRU5ErkJggg==;" vertex="1" parent="1">
          <mxGeometry x="365.5" y="42" width="48" height="35.43" as="geometry" />
        </mxCell>
        <mxCell id="-u1k-036uKY5tc66i7Ku-4" value="&lt;font color=&quot;#99ccff&quot; style=&quot;font-size: 18px;&quot;&gt;Data Lake S3&lt;/font&gt;" style="fillColor=none;strokeColor=#147EBA;dashed=1;verticalAlign=top;fontStyle=0;fontColor=#147EBA;whiteSpace=wrap;html=1;rounded=0;" vertex="1" parent="1">
          <mxGeometry x="549.5" y="75" width="587.5" height="509.57" as="geometry" />
        </mxCell>
        <mxCell id="-u1k-036uKY5tc66i7Ku-5" value="&lt;font color=&quot;#e6e6e6&quot;&gt;Raw&amp;nbsp;&lt;/font&gt;&lt;div&gt;&lt;font color=&quot;#e6e6e6&quot;&gt;activities&lt;/font&gt;&lt;/div&gt;" style="sketch=0;points=[[0,0,0],[0.25,0,0],[0.5,0,0],[0.75,0,0],[1,0,0],[0,1,0],[0.25,1,0],[0.5,1,0],[0.75,1,0],[1,1,0],[0,0.25,0],[0,0.5,0],[0,0.75,0],[1,0.25,0],[1,0.5,0],[1,0.75,0]];outlineConnect=0;fontColor=#232F3E;fillColor=#7AA116;strokeColor=#ffffff;dashed=0;verticalLabelPosition=bottom;verticalAlign=top;align=center;html=1;fontSize=12;fontStyle=0;aspect=fixed;shape=mxgraph.aws4.resourceIcon;resIcon=mxgraph.aws4.glacier;" vertex="1" parent="1">
          <mxGeometry x="613" y="170" width="39" height="39" as="geometry" />
        </mxCell>
        <mxCell id="-u1k-036uKY5tc66i7Ku-6" value="&lt;font color=&quot;#e6e6e6&quot;&gt;Raw&amp;nbsp;&lt;/font&gt;&lt;div&gt;&lt;font color=&quot;#e6e6e6&quot;&gt;charging stations&lt;/font&gt;&lt;/div&gt;" style="sketch=0;points=[[0,0,0],[0.25,0,0],[0.5,0,0],[0.75,0,0],[1,0,0],[0,1,0],[0.25,1,0],[0.5,1,0],[0.75,1,0],[1,1,0],[0,0.25,0],[0,0.5,0],[0,0.75,0],[1,0.25,0],[1,0.5,0],[1,0.75,0]];outlineConnect=0;fontColor=#232F3E;fillColor=#7AA116;strokeColor=#ffffff;dashed=0;verticalLabelPosition=bottom;verticalAlign=top;align=center;html=1;fontSize=12;fontStyle=0;aspect=fixed;shape=mxgraph.aws4.resourceIcon;resIcon=mxgraph.aws4.glacier;" vertex="1" parent="1">
          <mxGeometry x="613" y="318" width="39" height="39" as="geometry" />
        </mxCell>
        <mxCell id="-u1k-036uKY5tc66i7Ku-7" value="&lt;font color=&quot;#e6e6e6&quot;&gt;Raw&amp;nbsp;&lt;/font&gt;&lt;div&gt;&lt;font color=&quot;#e6e6e6&quot;&gt;Demographics&lt;/font&gt;&lt;/div&gt;" style="sketch=0;points=[[0,0,0],[0.25,0,0],[0.5,0,0],[0.75,0,0],[1,0,0],[0,1,0],[0.25,1,0],[0.5,1,0],[0.75,1,0],[1,1,0],[0,0.25,0],[0,0.5,0],[0,0.75,0],[1,0.25,0],[1,0.5,0],[1,0.75,0]];outlineConnect=0;fontColor=#232F3E;fillColor=#7AA116;strokeColor=#ffffff;dashed=0;verticalLabelPosition=bottom;verticalAlign=top;align=center;html=1;fontSize=12;fontStyle=0;aspect=fixed;shape=mxgraph.aws4.resourceIcon;resIcon=mxgraph.aws4.glacier;" vertex="1" parent="1">
          <mxGeometry x="611" y="493" width="39" height="39" as="geometry" />
        </mxCell>
        <mxCell id="-u1k-036uKY5tc66i7Ku-8" value="" style="endArrow=classic;html=1;rounded=0;exitX=0;exitY=0.5;exitDx=0;exitDy=0;exitPerimeter=0;entryX=1.123;entryY=0.658;entryDx=0;entryDy=0;entryPerimeter=0;" edge="1" parent="1" source="fiCCbxS_e87EwkZndzHB-1" target="-u1k-036uKY5tc66i7Ku-2">
          <mxGeometry width="50" height="50" relative="1" as="geometry">
            <mxPoint x="-330" y="742" as="sourcePoint" />
            <mxPoint x="-280" y="692" as="targetPoint" />
          </mxGeometry>
        </mxCell>
        <mxCell id="-u1k-036uKY5tc66i7Ku-9" value="" style="endArrow=classic;html=1;rounded=0;exitX=1;exitY=0.75;exitDx=0;exitDy=0;exitPerimeter=0;entryX=0;entryY=0.5;entryDx=0;entryDy=0;entryPerimeter=0;" edge="1" parent="1" source="-u1k-036uKY5tc66i7Ku-7" target="ZKWChWq3ZsPt71wJ-CPw-25">
          <mxGeometry width="50" height="50" relative="1" as="geometry">
            <mxPoint x="780" y="336" as="sourcePoint" />
            <mxPoint x="830" y="286" as="targetPoint" />
          </mxGeometry>
        </mxCell>
        <mxCell id="-u1k-036uKY5tc66i7Ku-10" value="" style="endArrow=classic;html=1;rounded=0;entryX=0;entryY=0.75;entryDx=0;entryDy=0;entryPerimeter=0;exitX=1;exitY=0.5;exitDx=0;exitDy=0;exitPerimeter=0;" edge="1" parent="1" source="fiCCbxS_e87EwkZndzHB-1" target="-u1k-036uKY5tc66i7Ku-7">
          <mxGeometry width="50" height="50" relative="1" as="geometry">
            <mxPoint x="310" y="798" as="sourcePoint" />
            <mxPoint x="360" y="748" as="targetPoint" />
          </mxGeometry>
        </mxCell>
        <mxCell id="-u1k-036uKY5tc66i7Ku-12" value="" style="endArrow=classic;html=1;rounded=0;entryX=0;entryY=0.75;entryDx=0;entryDy=0;entryPerimeter=0;exitX=1;exitY=0.5;exitDx=0;exitDy=0;exitPerimeter=0;" edge="1" parent="1" source="ZKWChWq3ZsPt71wJ-CPw-25" target="fiCCbxS_e87EwkZndzHB-10">
          <mxGeometry width="50" height="50" relative="1" as="geometry">
            <mxPoint x="651" y="758" as="sourcePoint" />
            <mxPoint x="701" y="708" as="targetPoint" />
          </mxGeometry>
        </mxCell>
        <mxCell id="-u1k-036uKY5tc66i7Ku-21" value="&lt;font style=&quot;font-size: 17px;&quot;&gt;Data Analyst&lt;/font&gt;" style="shape=actor;whiteSpace=wrap;html=1;labelPosition=center;verticalLabelPosition=bottom;align=center;verticalAlign=top;" vertex="1" parent="1">
          <mxGeometry x="1443" y="535" width="40" height="60" as="geometry" />
        </mxCell>
        <mxCell id="-u1k-036uKY5tc66i7Ku-22" value="Data Governance    / User management " style="rounded=0;arcSize=10;dashed=1;strokeColor=#F59D56;fillColor=none;gradientColor=none;dashPattern=8 4;strokeWidth=2;fontSize=18;fontColor=#99CCFF;" vertex="1" parent="1">
          <mxGeometry x="388" y="651" width="929" height="90" as="geometry" />
        </mxCell>
      </root>
    </mxGraphModel>
  </diagram>
  <diagram name="Copy of datalake" id="tqvPQfAhalKNXXKR2Pbl">
    <mxGraphModel dx="1434" dy="2023" grid="0" gridSize="10" guides="1" tooltips="1" connect="1" arrows="1" fold="1" page="1" pageScale="1" pageWidth="827" pageHeight="1169" background="#333333" math="0" shadow="0">
      <root>
        <mxCell id="5WAmbmz_X9Kc_GB2Uyi9-0" />
        <mxCell id="5WAmbmz_X9Kc_GB2Uyi9-1" parent="5WAmbmz_X9Kc_GB2Uyi9-0" />
        <mxCell id="5WAmbmz_X9Kc_GB2Uyi9-2" value="&lt;blockquote style=&quot;margin: 0 0 0 40px; border: none; padding: 0px;&quot;&gt;&lt;div style=&quot;&quot;&gt;&lt;span style=&quot;font-size: 24px;&quot;&gt;Data Consumer&lt;/span&gt;&lt;/div&gt;&lt;/blockquote&gt;" style="rounded=0;whiteSpace=wrap;html=1;align=left;labelPosition=center;verticalLabelPosition=top;verticalAlign=bottom;" vertex="1" parent="5WAmbmz_X9Kc_GB2Uyi9-1">
          <mxGeometry x="1377" y="30" width="222" height="738" as="geometry" />
        </mxCell>
        <mxCell id="5WAmbmz_X9Kc_GB2Uyi9-3" value="&lt;blockquote style=&quot;margin: 0 0 0 40px; border: none; padding: 0px;&quot;&gt;&lt;div style=&quot;&quot;&gt;&lt;font style=&quot;font-size: 24px;&quot;&gt;Data Sources&lt;/font&gt;&lt;/div&gt;&lt;/blockquote&gt;" style="rounded=0;whiteSpace=wrap;html=1;align=left;labelPosition=center;verticalLabelPosition=top;verticalAlign=bottom;" vertex="1" parent="5WAmbmz_X9Kc_GB2Uyi9-1">
          <mxGeometry x="18" y="33" width="203" height="746" as="geometry" />
        </mxCell>
        <mxCell id="5WAmbmz_X9Kc_GB2Uyi9-4" value="" style="rounded=0;whiteSpace=wrap;html=1;" vertex="1" parent="5WAmbmz_X9Kc_GB2Uyi9-1">
          <mxGeometry x="570" y="145" width="120" height="430" as="geometry" />
        </mxCell>
        <mxCell id="5WAmbmz_X9Kc_GB2Uyi9-5" value="&lt;p style=&quot;line-height: 60%;&quot;&gt;&lt;/p&gt;&lt;pre style=&quot;box-sizing: border-box; line-height: 1.4; font-family: SFMono-Regular, Menlo, Monaco, Consolas, &amp;quot;Liberation Mono&amp;quot;, &amp;quot;Courier New&amp;quot;, Courier, monospace; margin-top: 0px; margin-bottom: 0px; padding: 12px; overflow: auto; text-align: start;&quot;&gt;&lt;font color=&quot;#e6e6e6&quot;&gt;openstreetmaps &lt;/font&gt;API&lt;/pre&gt;&lt;p&gt;&lt;/p&gt;" style="rounded=0;whiteSpace=wrap;html=1;" vertex="1" parent="5WAmbmz_X9Kc_GB2Uyi9-1">
          <mxGeometry x="27" y="166.1" width="141" height="46.9" as="geometry" />
        </mxCell>
        <mxCell id="5WAmbmz_X9Kc_GB2Uyi9-6" value="&lt;pre style=&quot;box-sizing: border-box; line-height: 1.4; font-family: SFMono-Regular, Menlo, Monaco, Consolas, &amp;quot;Liberation Mono&amp;quot;, &amp;quot;Courier New&amp;quot;, Courier, monospace; margin-top: 0px; margin-bottom: 0px; padding: 12px; overflow: auto; text-align: start;&quot;&gt;&lt;font color=&quot;#e6e6e6&quot;&gt;Open Data API&lt;/font&gt;&lt;/pre&gt;" style="rounded=0;whiteSpace=wrap;html=1;" vertex="1" parent="5WAmbmz_X9Kc_GB2Uyi9-1">
          <mxGeometry x="26" y="313" width="142" height="50" as="geometry" />
        </mxCell>
        <mxCell id="5WAmbmz_X9Kc_GB2Uyi9-7" value="" style="rounded=0;arcSize=10;dashed=1;strokeColor=#F59D56;fillColor=none;gradientColor=none;dashPattern=8 4;strokeWidth=2;" vertex="1" parent="5WAmbmz_X9Kc_GB2Uyi9-1">
          <mxGeometry x="359" y="30.5" width="1005" height="740.5" as="geometry" />
        </mxCell>
        <mxCell id="5WAmbmz_X9Kc_GB2Uyi9-8" value="&lt;font color=&quot;#99ccff&quot; style=&quot;font-size: 18px;&quot;&gt;Data Ingestion&lt;/font&gt;&lt;div&gt;&lt;br&gt;&lt;/div&gt;" style="fillColor=none;strokeColor=#147EBA;dashed=1;verticalAlign=top;fontStyle=0;fontColor=#147EBA;whiteSpace=wrap;html=1;rounded=0;" vertex="1" parent="5WAmbmz_X9Kc_GB2Uyi9-1">
          <mxGeometry x="377" y="77.43" width="161" height="509.57" as="geometry" />
        </mxCell>
        <mxCell id="5WAmbmz_X9Kc_GB2Uyi9-9" value="extract_activities.py" style="outlineConnect=0;dashed=0;verticalLabelPosition=bottom;verticalAlign=top;align=center;html=1;shape=mxgraph.aws3.lambda_function;fillColor=#F58534;gradientColor=none;rounded=0;" vertex="1" parent="5WAmbmz_X9Kc_GB2Uyi9-1">
          <mxGeometry x="450" y="166" width="40" height="44" as="geometry" />
        </mxCell>
        <mxCell id="5WAmbmz_X9Kc_GB2Uyi9-10" value="extract_charging.py" style="outlineConnect=0;dashed=0;verticalLabelPosition=bottom;verticalAlign=top;align=center;html=1;shape=mxgraph.aws3.lambda_function;fillColor=#F58534;gradientColor=none;rounded=0;" vertex="1" parent="5WAmbmz_X9Kc_GB2Uyi9-1">
          <mxGeometry x="450" y="316" width="40" height="44" as="geometry" />
        </mxCell>
        <mxCell id="5WAmbmz_X9Kc_GB2Uyi9-11" value="" style="endArrow=classic;html=1;rounded=0;entryX=1;entryY=0.5;entryDx=0;entryDy=0;exitX=0;exitY=0.5;exitDx=0;exitDy=0;exitPerimeter=0;" edge="1" parent="5WAmbmz_X9Kc_GB2Uyi9-1" source="5WAmbmz_X9Kc_GB2Uyi9-9" target="5WAmbmz_X9Kc_GB2Uyi9-5">
          <mxGeometry width="50" height="50" relative="1" as="geometry">
            <mxPoint x="280" y="253" as="sourcePoint" />
            <mxPoint x="320" y="233" as="targetPoint" />
          </mxGeometry>
        </mxCell>
        <mxCell id="5WAmbmz_X9Kc_GB2Uyi9-12" value="PULL" style="edgeLabel;html=1;align=center;verticalAlign=middle;resizable=0;points=[];rounded=0;" vertex="1" connectable="0" parent="5WAmbmz_X9Kc_GB2Uyi9-11">
          <mxGeometry x="0.328" y="-1" relative="1" as="geometry">
            <mxPoint x="10" as="offset" />
          </mxGeometry>
        </mxCell>
        <mxCell id="5WAmbmz_X9Kc_GB2Uyi9-13" value="" style="endArrow=classic;html=1;rounded=0;exitX=1;exitY=0.5;exitDx=0;exitDy=0;exitPerimeter=0;entryX=0;entryY=0.5;entryDx=0;entryDy=0;entryPerimeter=0;" edge="1" parent="5WAmbmz_X9Kc_GB2Uyi9-1" source="5WAmbmz_X9Kc_GB2Uyi9-9" target="5WAmbmz_X9Kc_GB2Uyi9-42">
          <mxGeometry width="50" height="50" relative="1" as="geometry">
            <mxPoint x="310" y="283" as="sourcePoint" />
            <mxPoint x="608.1399999999999" y="188.08200180467816" as="targetPoint" />
          </mxGeometry>
        </mxCell>
        <mxCell id="5WAmbmz_X9Kc_GB2Uyi9-14" value="" style="endArrow=classic;html=1;rounded=0;exitX=1;exitY=0.5;exitDx=0;exitDy=0;exitPerimeter=0;entryX=0;entryY=0.5;entryDx=0;entryDy=0;entryPerimeter=0;" edge="1" parent="5WAmbmz_X9Kc_GB2Uyi9-1" source="5WAmbmz_X9Kc_GB2Uyi9-10" target="5WAmbmz_X9Kc_GB2Uyi9-43">
          <mxGeometry width="50" height="50" relative="1" as="geometry">
            <mxPoint x="490" y="330" as="sourcePoint" />
            <mxPoint x="608.1399999999999" y="337.26198375789545" as="targetPoint" />
          </mxGeometry>
        </mxCell>
        <mxCell id="5WAmbmz_X9Kc_GB2Uyi9-15" value="&lt;b style=&quot;&quot;&gt;&lt;font color=&quot;#e6e6e6&quot; style=&quot;font-size: 36px;&quot;&gt;Data Platform Architecture&amp;nbsp;&lt;/font&gt;&lt;/b&gt;" style="text;html=1;align=center;verticalAlign=middle;whiteSpace=wrap;rounded=0;" vertex="1" parent="5WAmbmz_X9Kc_GB2Uyi9-1">
          <mxGeometry x="6" y="-60" width="496" height="40" as="geometry" />
        </mxCell>
        <mxCell id="5WAmbmz_X9Kc_GB2Uyi9-16" value="preprocesssing.py" style="outlineConnect=0;dashed=0;verticalLabelPosition=bottom;verticalAlign=top;align=center;html=1;shape=mxgraph.aws3.lambda_function;fillColor=#F58534;gradientColor=none;rounded=0;" vertex="1" parent="5WAmbmz_X9Kc_GB2Uyi9-1">
          <mxGeometry x="754" y="304.8" width="40" height="44" as="geometry" />
        </mxCell>
        <mxCell id="5WAmbmz_X9Kc_GB2Uyi9-17" value="" style="endArrow=classic;html=1;rounded=0;entryX=0;entryY=0.5;entryDx=0;entryDy=0;entryPerimeter=0;" edge="1" parent="5WAmbmz_X9Kc_GB2Uyi9-1" target="5WAmbmz_X9Kc_GB2Uyi9-16">
          <mxGeometry width="50" height="50" relative="1" as="geometry">
            <mxPoint x="660" y="208.4825235309081" as="sourcePoint" />
            <mxPoint x="710" y="253" as="targetPoint" />
          </mxGeometry>
        </mxCell>
        <mxCell id="5WAmbmz_X9Kc_GB2Uyi9-18" value="Refined&lt;div&gt;Activities&lt;/div&gt;" style="outlineConnect=0;dashed=0;verticalLabelPosition=bottom;verticalAlign=top;align=center;html=1;shape=mxgraph.aws3.athena;fillColor=#F58534;gradientColor=none;rounded=0;" vertex="1" parent="5WAmbmz_X9Kc_GB2Uyi9-1">
          <mxGeometry x="869" y="153.5" width="76.5" height="76.5" as="geometry" />
        </mxCell>
        <mxCell id="5WAmbmz_X9Kc_GB2Uyi9-19" value="" style="endArrow=classic;html=1;rounded=0;entryX=0;entryY=0.5;entryDx=0;entryDy=0;entryPerimeter=0;" edge="1" parent="5WAmbmz_X9Kc_GB2Uyi9-1" source="5WAmbmz_X9Kc_GB2Uyi9-16" target="5WAmbmz_X9Kc_GB2Uyi9-18">
          <mxGeometry width="50" height="50" relative="1" as="geometry">
            <mxPoint x="770" y="403" as="sourcePoint" />
            <mxPoint x="820" y="353" as="targetPoint" />
          </mxGeometry>
        </mxCell>
        <mxCell id="5WAmbmz_X9Kc_GB2Uyi9-20" value="&lt;div&gt;&lt;font color=&quot;#99ccff&quot; style=&quot;font-size: 18px;&quot;&gt;Data Datawarehouse&lt;/font&gt;&lt;/div&gt;&lt;div&gt;&lt;font color=&quot;#99ccff&quot; style=&quot;font-size: 18px;&quot;&gt;Serving&lt;/font&gt;&lt;/div&gt;" style="fillColor=none;strokeColor=#147EBA;dashed=1;verticalAlign=top;fontStyle=0;fontColor=#147EBA;whiteSpace=wrap;html=1;rounded=0;" vertex="1" parent="5WAmbmz_X9Kc_GB2Uyi9-1">
          <mxGeometry x="1157" y="76" width="184" height="507" as="geometry" />
        </mxCell>
        <mxCell id="5WAmbmz_X9Kc_GB2Uyi9-21" value="" style="endArrow=classic;html=1;rounded=0;entryX=0;entryY=0.5;entryDx=0;entryDy=0;entryPerimeter=0;" edge="1" parent="5WAmbmz_X9Kc_GB2Uyi9-1" target="5WAmbmz_X9Kc_GB2Uyi9-16">
          <mxGeometry width="50" height="50" relative="1" as="geometry">
            <mxPoint x="660" y="324.7209700669887" as="sourcePoint" />
            <mxPoint x="760" y="353" as="targetPoint" />
          </mxGeometry>
        </mxCell>
        <mxCell id="5WAmbmz_X9Kc_GB2Uyi9-22" value="Refined&lt;div&gt;Charging station&lt;/div&gt;" style="outlineConnect=0;dashed=0;verticalLabelPosition=bottom;verticalAlign=top;align=center;html=1;shape=mxgraph.aws3.athena;fillColor=#F58534;gradientColor=none;rounded=0;" vertex="1" parent="5WAmbmz_X9Kc_GB2Uyi9-1">
          <mxGeometry x="873" y="292.5" width="76.5" height="76.5" as="geometry" />
        </mxCell>
        <mxCell id="5WAmbmz_X9Kc_GB2Uyi9-23" value="Datawarehouse" style="outlineConnect=0;dashed=0;verticalLabelPosition=bottom;verticalAlign=top;align=center;html=1;shape=mxgraph.aws3.athena;fillColor=#F58534;gradientColor=none;rounded=0;" vertex="1" parent="5WAmbmz_X9Kc_GB2Uyi9-1">
          <mxGeometry x="1188" y="302.3" width="76.5" height="76.5" as="geometry" />
        </mxCell>
        <mxCell id="5WAmbmz_X9Kc_GB2Uyi9-24" value="" style="endArrow=classic;html=1;rounded=0;exitX=1;exitY=0.5;exitDx=0;exitDy=0;exitPerimeter=0;" edge="1" parent="5WAmbmz_X9Kc_GB2Uyi9-1" source="5WAmbmz_X9Kc_GB2Uyi9-16" target="5WAmbmz_X9Kc_GB2Uyi9-22">
          <mxGeometry width="50" height="50" relative="1" as="geometry">
            <mxPoint x="760" y="453" as="sourcePoint" />
            <mxPoint x="810" y="403" as="targetPoint" />
          </mxGeometry>
        </mxCell>
        <mxCell id="5WAmbmz_X9Kc_GB2Uyi9-25" value="" style="endArrow=classic;html=1;rounded=0;entryX=0;entryY=0.5;entryDx=0;entryDy=0;entryPerimeter=0;" edge="1" parent="5WAmbmz_X9Kc_GB2Uyi9-1" source="5WAmbmz_X9Kc_GB2Uyi9-22" target="5WAmbmz_X9Kc_GB2Uyi9-30">
          <mxGeometry width="50" height="50" relative="1" as="geometry">
            <mxPoint x="930" y="443" as="sourcePoint" />
            <mxPoint x="980" y="393" as="targetPoint" />
          </mxGeometry>
        </mxCell>
        <mxCell id="5WAmbmz_X9Kc_GB2Uyi9-26" value="" style="endArrow=classic;html=1;rounded=0;entryX=0;entryY=0.5;entryDx=0;entryDy=0;entryPerimeter=0;" edge="1" parent="5WAmbmz_X9Kc_GB2Uyi9-1" source="5WAmbmz_X9Kc_GB2Uyi9-18" target="5WAmbmz_X9Kc_GB2Uyi9-30">
          <mxGeometry width="50" height="50" relative="1" as="geometry">
            <mxPoint x="977" y="337" as="sourcePoint" />
            <mxPoint x="1120" y="270" as="targetPoint" />
          </mxGeometry>
        </mxCell>
        <mxCell id="5WAmbmz_X9Kc_GB2Uyi9-27" value="" style="edgeStyle=orthogonalEdgeStyle;rounded=0;orthogonalLoop=1;jettySize=auto;html=1;entryX=0.5;entryY=0;entryDx=0;entryDy=0;" edge="1" parent="5WAmbmz_X9Kc_GB2Uyi9-1" source="5WAmbmz_X9Kc_GB2Uyi9-28" target="5WAmbmz_X9Kc_GB2Uyi9-49">
          <mxGeometry relative="1" as="geometry">
            <mxPoint x="1463" y="505" as="targetPoint" />
          </mxGeometry>
        </mxCell>
        <mxCell id="5WAmbmz_X9Kc_GB2Uyi9-28" value="&lt;div&gt;&lt;span style=&quot;background-color: rgb(51, 51, 51); color: rgb(230, 230, 230);&quot;&gt;Tableau BI&lt;/span&gt;&lt;br&gt;&lt;/div&gt;" style="shape=image;html=1;verticalAlign=top;verticalLabelPosition=bottom;labelBackgroundColor=#ffffff;imageAspect=0;aspect=fixed;image=https://cdn3.iconfinder.com/data/icons/fintech-icon/128/11_Data_Visualization-128.png;rounded=0;" vertex="1" parent="5WAmbmz_X9Kc_GB2Uyi9-1">
          <mxGeometry x="1399" y="278" width="128" height="128" as="geometry" />
        </mxCell>
        <mxCell id="5WAmbmz_X9Kc_GB2Uyi9-29" value="" style="endArrow=classic;html=1;rounded=0;" edge="1" parent="5WAmbmz_X9Kc_GB2Uyi9-1" source="5WAmbmz_X9Kc_GB2Uyi9-28" target="5WAmbmz_X9Kc_GB2Uyi9-23">
          <mxGeometry width="50" height="50" relative="1" as="geometry">
            <mxPoint x="1250" y="343" as="sourcePoint" />
            <mxPoint x="1300" y="293" as="targetPoint" />
          </mxGeometry>
        </mxCell>
        <mxCell id="5WAmbmz_X9Kc_GB2Uyi9-30" value="to_dw&lt;div&gt;(1 Off)&lt;/div&gt;" style="outlineConnect=0;dashed=0;verticalLabelPosition=bottom;verticalAlign=top;align=center;html=1;shape=mxgraph.aws3.lambda_function;fillColor=#F58534;gradientColor=none;rounded=0;" vertex="1" parent="5WAmbmz_X9Kc_GB2Uyi9-1">
          <mxGeometry x="1076" y="309" width="40" height="44" as="geometry" />
        </mxCell>
        <mxCell id="5WAmbmz_X9Kc_GB2Uyi9-31" value="" style="endArrow=classic;html=1;rounded=0;entryX=0;entryY=0.5;entryDx=0;entryDy=0;entryPerimeter=0;" edge="1" parent="5WAmbmz_X9Kc_GB2Uyi9-1" target="5WAmbmz_X9Kc_GB2Uyi9-44">
          <mxGeometry width="50" height="50" relative="1" as="geometry">
            <mxPoint x="670" y="505.12568311343557" as="sourcePoint" />
            <mxPoint x="740" y="683" as="targetPoint" />
          </mxGeometry>
        </mxCell>
        <mxCell id="5WAmbmz_X9Kc_GB2Uyi9-32" value="" style="endArrow=classic;html=1;rounded=0;entryX=0;entryY=0.39;entryDx=0;entryDy=0;entryPerimeter=0;" edge="1" parent="5WAmbmz_X9Kc_GB2Uyi9-1" source="5WAmbmz_X9Kc_GB2Uyi9-30" target="5WAmbmz_X9Kc_GB2Uyi9-23">
          <mxGeometry width="50" height="50" relative="1" as="geometry">
            <mxPoint x="1300" y="473" as="sourcePoint" />
            <mxPoint x="1350" y="423" as="targetPoint" />
          </mxGeometry>
        </mxCell>
        <mxCell id="5WAmbmz_X9Kc_GB2Uyi9-33" value="extract_demogtraphics.py" style="outlineConnect=0;dashed=0;verticalLabelPosition=bottom;verticalAlign=top;align=center;html=1;shape=mxgraph.aws3.lambda_function;fillColor=#F58534;gradientColor=none;rounded=0;" vertex="1" parent="5WAmbmz_X9Kc_GB2Uyi9-1">
          <mxGeometry x="440" y="499" width="40" height="44" as="geometry" />
        </mxCell>
        <mxCell id="5WAmbmz_X9Kc_GB2Uyi9-34" value="10 minutes&lt;div&gt;&lt;br&gt;&lt;/div&gt;" style="outlineConnect=0;fontColor=#232F3E;gradientColor=none;fillColor=#E7157B;strokeColor=none;dashed=0;verticalLabelPosition=bottom;verticalAlign=top;align=center;html=1;fontSize=12;fontStyle=0;aspect=fixed;pointerEvents=1;shape=mxgraph.aws4.eventbridge_scheduler;rounded=0;" vertex="1" parent="5WAmbmz_X9Kc_GB2Uyi9-1">
          <mxGeometry x="405" y="279" width="37" height="37" as="geometry" />
        </mxCell>
        <mxCell id="5WAmbmz_X9Kc_GB2Uyi9-35" value="" style="endArrow=classic;html=1;rounded=0;entryX=1;entryY=0.5;entryDx=0;entryDy=0;" edge="1" parent="5WAmbmz_X9Kc_GB2Uyi9-1" source="5WAmbmz_X9Kc_GB2Uyi9-10" target="5WAmbmz_X9Kc_GB2Uyi9-6">
          <mxGeometry width="50" height="50" relative="1" as="geometry">
            <mxPoint x="628" y="519" as="sourcePoint" />
            <mxPoint x="107" y="520" as="targetPoint" />
          </mxGeometry>
        </mxCell>
        <mxCell id="5WAmbmz_X9Kc_GB2Uyi9-36" value="PULL" style="edgeLabel;html=1;align=center;verticalAlign=middle;resizable=0;points=[];rounded=0;" vertex="1" connectable="0" parent="5WAmbmz_X9Kc_GB2Uyi9-35">
          <mxGeometry x="0.2478" y="4" relative="1" as="geometry">
            <mxPoint x="12" y="-1" as="offset" />
          </mxGeometry>
        </mxCell>
        <mxCell id="5WAmbmz_X9Kc_GB2Uyi9-37" value="Refined&lt;div&gt;Demographics&lt;/div&gt;" style="outlineConnect=0;dashed=0;verticalLabelPosition=bottom;verticalAlign=top;align=center;html=1;shape=mxgraph.aws3.athena;fillColor=#F58534;gradientColor=none;rounded=0;" vertex="1" parent="5WAmbmz_X9Kc_GB2Uyi9-1">
          <mxGeometry x="862" y="460" width="76.5" height="76.5" as="geometry" />
        </mxCell>
        <mxCell id="5WAmbmz_X9Kc_GB2Uyi9-38" value="" style="endArrow=classic;html=1;rounded=0;entryX=0;entryY=0.5;entryDx=0;entryDy=0;entryPerimeter=0;" edge="1" parent="5WAmbmz_X9Kc_GB2Uyi9-1" source="5WAmbmz_X9Kc_GB2Uyi9-37" target="5WAmbmz_X9Kc_GB2Uyi9-30">
          <mxGeometry width="50" height="50" relative="1" as="geometry">
            <mxPoint x="1050" y="533" as="sourcePoint" />
            <mxPoint x="1100" y="483" as="targetPoint" />
          </mxGeometry>
        </mxCell>
        <mxCell id="5WAmbmz_X9Kc_GB2Uyi9-39" value="Open Data&lt;div&gt;Demographics&lt;/div&gt;" style="verticalLabelPosition=bottom;html=1;verticalAlign=top;align=center;strokeColor=none;fillColor=#00BEF2;shape=mxgraph.azure.website_generic;pointerEvents=1;" vertex="1" parent="5WAmbmz_X9Kc_GB2Uyi9-1">
          <mxGeometry x="50" y="474" width="81" height="74.5" as="geometry" />
        </mxCell>
        <mxCell id="5WAmbmz_X9Kc_GB2Uyi9-40" value="" style="shape=image;imageAspect=0;aspect=fixed;verticalLabelPosition=bottom;verticalAlign=top;image=data:image/png,iVBORw0KGgoAAAANSUhEUgAAAFQAAAA+CAYAAAC1BDz9AAABP2lDQ1BJQ0MgUHJvZmlsZQAAKJFjYGDiSSwoyGFhYGDIzSspCnJ3UoiIjFJgf8bAySDBwMcgxGCZmFxc4BgQ4ANUwgCjUcG3awyMIPqyLsisdQKrtl0pbt50asPSXzKPn/zGVI8CuFJSi5OB9B8gTkguKCphYGCMAbKVy0sKQOwGIFukCOgoIHsKiJ0OYa8AsZMg7D1gNSFBzkD2BSBbIDkjMQXIfgBk6yQhiacjsaH2ggCbm4dfuCEBh5IKSlIrSkC0c35BZVFmekaJgiMwdFIVPPOS9XQUjAyMjBgYQGENUf1DBxyGjJp1CLH6DqBuKQYGpqkIsVBJBoaVXQwMorMRYkqmDAzCwDDb9bcgsSgR7gDGbyzFacZGEDa3HgMDy/P//z/6MzCwPmRg+P/h///f6v///xUHij9mYNj8CQA6C1+twDaC8AAAAIplWElmTU0AKgAAAAgABAEaAAUAAAABAAAAPgEbAAUAAAABAAAARgEoAAMAAAABAAIAAIdpAAQAAAABAAAATgAAAAAAAACQAAAAAQAAAJAAAAABAAOShgAHAAAAEgAAAHigAgAEAAAAAQAAAFSgAwAEAAAAAQAAAD4AAAAAQVNDSUkAAABTY3JlZW5zaG90EHJjvgAAAAlwSFlzAAAWJQAAFiUBSVIk8AAAAdRpVFh0WE1MOmNvbS5hZG9iZS54bXAAAAAAADx4OnhtcG1ldGEgeG1sbnM6eD0iYWRvYmU6bnM6bWV0YS8iIHg6eG1wdGs9IlhNUCBDb3JlIDYuMC4wIj4KICAgPHJkZjpSREYgeG1sbnM6cmRmPSJodHRwOi8vd3d3LnczLm9yZy8xOTk5LzAyLzIyLXJkZi1zeW50YXgtbnMjIj4KICAgICAgPHJkZjpEZXNjcmlwdGlvbiByZGY6YWJvdXQ9IiIKICAgICAgICAgICAgeG1sbnM6ZXhpZj0iaHR0cDovL25zLmFkb2JlLmNvbS9leGlmLzEuMC8iPgogICAgICAgICA8ZXhpZjpQaXhlbFlEaW1lbnNpb24+NjI8L2V4aWY6UGl4ZWxZRGltZW5zaW9uPgogICAgICAgICA8ZXhpZjpQaXhlbFhEaW1lbnNpb24+ODQ8L2V4aWY6UGl4ZWxYRGltZW5zaW9uPgogICAgICAgICA8ZXhpZjpVc2VyQ29tbWVudD5TY3JlZW5zaG90PC9leGlmOlVzZXJDb21tZW50PgogICAgICA8L3JkZjpEZXNjcmlwdGlvbj4KICAgPC9yZGY6UkRGPgo8L3g6eG1wbWV0YT4K+aH6pgAAABxpRE9UAAAAAgAAAAAAAAAfAAAAKAAAAB8AAAAfAAAN/+O7AY4AAA3LSURBVHgB7FoHUyLZGj0kERFJgjlHEHPet/vf325t7ahjwgBmzAlUFASJvvPdlnF2ip33nHX31VZNV6HYffv2vec73/nO16Wuzzf1XHzGy6Hjb/l8P74VAd13QL8VuvL3fQe0PC7ffPY7oN8MXfkbvwNaHpdvPvsd0G+GrvyNbwD0kxX4bKaSIyh37bNhv3MOX44tzfH5+H/ud12/b5q26RnaNr9mm2REaVQJBB3PaOe1KxoQpau//0vOvs6hXZOfX3vm66h/yjedLzD7XCwUoHnRr23uFQzdJ8Z9B/TLQJcB9Mshpb81DgqEX7JKWKpdff4M6qK68Rl6XpMQlHhbGiP3lAJYulZ61l/1+5UU5Z/w+To+/15+dLmzuv6BGTK0+AJIuUk0sOSKBmZpGu1MSQZKkAICpEClAa990/NvvTovd5fm0YIg58s9V0a+9yFPlPVpwf797LIqbU+vwX/7uggoNbSgbe2Z91NOyx7a42Qh2kO1QaUHCpylRcoEJUDlmwAmLBVQS2Bq82gb+LsA1dYlYOo+rVXbReln8WWtpb81YEt7LJ39+u8/AejrgwRsbbklUGXRWmS+BqgGLwHVvc719eX+2atc03Ph/w+oYhZ/6HWyIG1TOr0BBoOB5+RvMlBXZGFjcZPqViyQ6fIh0M8aOzXOahxQ8/EuyYiiuq4m0Sb+S39KeF+D/eWj/jaGynb1RM5o1MFkNMFcUQFzpQVmcyXPEVS9LLOIXD6H7NMTMk9p9clmcygQ4GcYoec4udfAOXQ8VyhwbK7A3/z+XGI2lZZsNXA+vdEIIwMmQSkwQIU8P0Vq/ctYSUdZk4HzGgxG3mNURC9yjKyjkM8zWARQp+cYIypMJpgq5DfXznnlkMpRoMPJ53LI5PLI8h55jrx+e5W+twX7v6a8TKeTTRr1qLKY4XK6UOuphdvlgd3uRGUlQTUZ1GZT6QTubm8RvbpE9PoS9/cPyGTz4M2wVtngcrthqTSjyA3H43e8fo+nDDdBNsshIAk4FkslbLYaVFZVkewFpNJpPCYSeGKwCkXOp8bqUWGu4LxWVFfbUGW1qnVmMk9IPDzgIfGgwDGajGoup4vrdrnh4Roc9hoFWD6fxWMqxbXEEY1GcRu/RzKZRCaTIdAMssrGdwRUMdPAhZOR1bZq1Hu9aGttRQs/9Q0NBFUAsigGFMmcx9QDri4vcXJ4iIODPRyfnOD+IUmkDHC6vejp7obbaUc2m8Hx0RGOjo95/V5tQOCUzVut1ah116KxsQm1Xg/yZM3tzQ3Oz88ZpGukCYCAquOcsiYv19TY1IzG+gblpSVQp3zuNQMqh63GjibO1dzSwo+Mq4eLRBBpygmgj0mOvUYkcoh9fs7OzhTAWYKqsfSdAFXMZOqZyQK73YFWgjgyNIS2tlZ4vLWw2W28Zn7RUaYo069YyKsN39xEETk4RHAtiJOTM6TJUrenDqOjY+joaIWOrAtvhrAa5PXTI8Tv44QTsNpsqPPWoaurGwMDfrS1tyqmnJ2dY3NjE1vhsAI19ZRSqex0u9DZ2YlAYBgDfh/S6SccM0jhUAhXVxdco50EaENffz+amhpQQ3DNFWamNNfK1FYawQcL8+UZy6urCIU2GbwzPCZTKvUl0G85yqa8moI/RBsl/dy1HvT29mF6ahJepoyRWlR4ziNHjRTdMbJAVXGcnRuoqalWm725ucXi4keEwlu4jt7yvBOTM9MYCvjJahNCGyHMz88hvB3m5i+V5sn97W3tGBoawdT0BIHtRJ5ae3R4go+LS1haXCRgR3iglFAaUVdXj4FAANPTM5icGMfVdZRghrG+vqZY1t7RAb9/AD09vZQHA5KUjft4gtcSyGWy1H/WA65bakIykURwc1MF40wB+vjXACosdDqdaGlpRS9TtsgC8cA0vb2L447plUqnUFlhUmna09NDZg2Qhe0qEFtbWwR1GVu7u8hTkkaGRjE1NYbaWjfOT06xvLyEzdC6Sv9EMkGts6GzoxNj4xOYnf2Bz2xQ8iCArqwEsbyyhIPIAeLUaR2lSGRhZGQEP/30I4aZPSEyWMbt7e6pwjYxOYF+nw/2GgdT+gBrzIhIJMIARlk0n0gYAyzWKtRQr6XA3t7d4ToWQ4LAC+Dvn/LCUlZRi8XCRdXA5XCoIpFmFU+lWCgIpqSLkele88KuwcFBDA8PKq29vLrCymqQn3Xc3d0T6A7MTE8TtHben8AmGbG8vIid3R1u4kFpcjfZNDI6gtGRMdTXexjAIi4vr7CxvoHFpSXs7m7j5vZGFcPOzi6MUUYmyM7GpiYEg2tYW1ujzBwzY6oUc7spHzpm2vrGGhY/LilApXDmWNXF/krVl8JaQeI8ZXJIP2VUEJX9e++iJGVOKrykvtHE4sQKLEfJUoiNkQIjJl601kv98/v8GB8fRWAwoKrzmgDxcQWn5xdwUy5mmfYBv5/pZsT+/g7mFuawRc2TSlvf2ABfvw+BgQB6enuVdsvzhTF7e3tYXV0mozfpIq5YbGrQ1+fjs8bhIwslk1aDqyplL1kYRT5ECrqosYJcKLxJ9q4qbb+lHOVyWa2Scz+yPx1JIYVdukaxW1qFl90qAZQv/9NRVkM/v1PrgV4Nueb9xCPS94lPJKgiA+IfRRq6KQtTk+Nk2Sj1r0AWhjFPZhwcRF5YM42xsWHYbXacnp3i48d5sieIGG1LS3MLJSNAoFhEmpuUFstmxYfGYjcIh1nIVlfoHo7gYBr7GZixsXF0kKkC0NLSMra3wogzdd0eD2VjRs1VXW1VxWqDui1yIJVcgpSmHctms6qYCoayS60d1hDQKTDfGVCZWqbUG3RMD4OyUGZ6SXOFBSayQkx4gdVdDLeNlkeq6tBwAINkaJaGWQCdm19kqlLXKB9TU1OYpLbVk813dzeUg2Wm6io3eUIn0abY2dXVA4fDTq1OvBRGiwraCe3Qx4UFSsS2qth+34DSUHEgcXraubnfsLOzwwr9iAbauunZaYwMD9MuNeKJDuDo6ITr2Ceo+5SRS9wy9R/oWQXYHItrnkKv3g2rVJd9y87fGVCZzsACUMUoN9DzCXOamlrQwPR0ONwKJPGgBUkhLqqSFdNLW+XxurngOK3TOuYXFrG1ta2M9uTkJH6YmUVnVydST0mleZub6/SvFwrQfqZ8E32lpLpooZh3Ly2XuIirq2sydBV7lAqxcv2Ul+HBIdUwHB5G8PMv/1bWStgnTcTQ4DA/AfT29XJNdCes6mLa4/EH3Nzc4eKcnplBOj4+xdn5KWIEOPWY/iQF7waoigs3JOltom8TA91A4+z39aK9vR31tCs2mwN6CnqeXc8zU1taySINt4lSYCe77DVW2pgYVlhZ58lQqfiyGdHHmZkpMnhQGfmdnS1eC1EXmfI03x2s8g5Kh3QseyxW0uLKeTc9p9ilLab0IRsHcQSis+IspPFY21jH3IfflNamaNat1dU09M2cr4NetYNBaiKoHrhcTtq2KjKyqDIgFrsmqKfU8wgDFcH5xYVirVhCTUffgaEKUAWmSaWWLMbf78fE5CiNt0d1RslkmtX2jlqUJDu1wlRB8O1s6+rIUAc7IsUoVt75hSWECah0OR0MyPgY7dP0FEGqpbE/5mb2adivmKaNtEKNMLHvlr9DLFaVBLSDgDTwfJ4NwhF9qBhvKzNGUr2hoYkWKEMHsED/GWSXdKpSWN4xSDvqdLhIgDp4+ZH5RVaamQHVDIjZbGL+scNLPOLo5JzSs4ENOg/xutK+ynuGtx5li5IAqmeai52QjQwEBmlNJphePvUi4YJdiEQ0EjlWrMmx0hvZ69ew8jZTEnq7u9ieNqtCElzbpCmnF93eVm2etK+ir//64UcFyO1dDKenJ7hkOntZSORdQYbzHbINlIpeSZ0WhrW3d6KS9k0YFWMrKlVcpMDCfj/G1vHD3AfV7sZuYpC2UQ55Ayt2SNpZ6fedToe6R4Lgrad8sXuSj50dVIoaG1wLY2FxkYFZxzU1VuZhzX3TUR5QIiqv5iRtpA2cnp3FDItJY70LB/sHNNji99YRoW6lyDp5gWEioC6mZU93j2LgQGBAWaH1jTCWllewvbOrXnA4mXK9Pd2swLNqrLztidJMR6PXymALI6Uf32YAQqENprOJYHYoi+RhMNKpRwbmkez2MIA2trUZRPb2CehvuGD1viezRIZKh2ixQV41krHy9spEeaiyWPmCx4NuriPATsvn76cHdiJydIaFpSAWPnxgAYvwOXxvwDdibzn+EFAj087hcEKKhGx+jGlqt1kQXF1j1Z7T+vDjE/WCQR4or8ekcvvZWop5F3N/S+EP0odqDGX1ZbGwWi1oZdcltkraQielQV6Z3VI+5OVInob7/OKcfnKTFXtb6aMA6uNYuU8yR8aLCxDvGI3G1Ni5uTkWmhgD/MhUfQVBABUx1Lwzy4wATJ23sS40c74AO7txZl9/fy9u7hIsemv49ddfsUsCJJMMzvsAylRhJF18m9RH0zw9M0P7MYRqSwUBDRLQeepNkFbnVLl8vbC5isWD+jQyMsyefxx9LBhRGmjplObmFukhw3xdF1fAiwsQAz84FGA6d5FpDlWwpGgJKHtsVTdY+Q+PDukaKmnF2hkoVmvOKRpdYTKr6i86J62kGHrpuB5onXK5HBNdXjeSlWSmgC6HdFzySk79qyFBlQ7JW+clkP2YZPYNc92Jx4xyJb/8/DMBFYlicN4I6H8AAAD//9LWziQAAA6fSURBVO1ZB1MbWRpsZQlFECJnsMm213F37/78XV3dOWJjYxvbgIkGESSScrruNxJINmCx572qrfJQw4xm3rz5Xn/9xbFNTD+qlEsVaKvYuPPUxqPT5UQ4FMaNmxP429//hocP7qGtNYjF94t4+vQ55l68xOraGjgUPr8PHbEYJqemcO/+PUxPjKGjsx2JgyRezC3g3/95itevX2NvPw47x0fCYQwNDWFmZgZ3frnN80G4+b6D5BGWPy3j1auXmH/9EvHdXV53o6e7F7O3buHevbscO4BgMIh8vog1vv/lq1eYm3uBDx/eI5vJwm63w+trQSgQRCAQgMvtRqVcQTqTRjqdRi6bQ6lURgvHDAz0Y3p2Fg8e3MXwyBC2tvfx5OkL/Osf/8Tq58/IZrMGD2HT7Ga7EFA+bXfY0eL3Y5ALv//gIX57dB+jIwM4ODjAEhf9YfETtja/GPRbWnyIRFvR19trhOzuiiEUakEhX8Lih2U8ppBzcy+xubGOcjEPje/u7MbkzBQePXyI6ZkJRCJhbO/s4PX8Wzx/9pwKeIVEMgGH04n29hhmZ2bx+++/Y2p6HG1tbTgk+AsL7/Hk2WPME9SN9XUUiwW43R6+O4Surh709/UhGm2Dx+tBJpPB6WmKIOUoQ9mQoIfyjo4Mo3+gjwRy4f3iEp48kawvEN/eQbFQahbHs3FXAirhYh0dZOlN3L17B3fv3KJm3cjmcjhKnuDkOI0itQ0H5yNVC/k8yqUCfF43WRgkcAHsxPcxv/AOr16+wueVJY7JwUPWtEYiGLtxg+y4j9k7s4i1t2JzaxtvXi9w7EtjCUdHh0bQCMeOT0zit19/JfhTBKkVO7sHeDM/j2fPyc7F99jf3yMTy2SkB2EqZ2BgANPTsxgbHeEaonDYHQS8aEAql21weUgYKtbn85GxFezsxMn2t3j95g3WPq/i+PiIa5Hlygab3y4F1Ga3UWsO+AlKO815dGQUv9yepclJ61GC5kepbEeGZnFyeoL9xB42yMA9Cma3VxBtazVMSqWzWFndoEl+4v1VA6iTZtnS0oLe3j4CNIOb4+Ockwz9EsfHT0v4+OED1jfWkEqlaXIV+OlS+vuHcGt2BmM3b1AZYeztHZD9i3j/9h3HbtCcT81Yp9OFAC2rp6cXMzTnCSpikG4iEgkZ9+FyuOjS7ChX8mRrBsnDQ1raDj5+XOZ8H+nG1iFF5nN5+j8B+QMAPZuGc9ltNjjo34IUsruri2y9gbGxMWOyYsP+/gGZtYnV9RWa3RoFTMLtcBLMCML0lfliCUma50HiEGkCVC4XYCNIcimBQAidNM32WIdhihayt7fHPY7jIzKEjNOCnDR7+fOOji60d8TgD/hpwmnEqbzt7S/W2IrGWsu3k40t/hZ0dnair2+AJj1kzttaWxEJBWkhLhyfHGE3voP19Q2sra5hY3MTSb5TBCnRJVhg1mY0Uzf1zzYx9ahSotOubedn1hXpx27Y6kSAJtJG5kUirWRNEA4CJ990cnKMw+NDHo+Qp0BSgs/ngcfjQYmRLpcr0E0UUKCPo10SoooJfC6nGx4GB6/XZ3xlni5DQGnOXE4BgeP4J4DcHhfdjZ/ztpiAWaL5KsikyExrbG0FBJXvd5GpigHBQJA+NUyf2UKr8lImN1xUpoJTOp0ysh8RyJOTU2T5foFZg0Pvvj5DDaCWdq2HL6Y4ZeSibWSfyyxIYErwIlmkxRVKEqZEvEpGDAeF1i5I5IoM2aqS2mAxz6BK85cJai4xUs8rCpcrtYBgLcrBMWK1do0X2OWSxpbqxtZApRI4nxThcDrgpMx6zsF3OUgOZRplKrakd1HJBc1D2SUjp62SU3D+IUAf1jH0qgm+5m5NeOtYu6sZJJJ15Kk0oV/m2HhPwpf5r/as7v7Zm6Xi2luIoO1rMhFuCmStoCp7bXgTR5p8PaDSHfVi5tE/bmZy88/6/Rf+T4LSH7sYnFxwaXc7aW1krJPMJ+tBo1BkL5KxOZq/3JTckKygWa3bxicfMu+tAlY1PbtDpuKEzEz3ZBplmrU1jGN/5PaDp7tMNMUBL31oKwNTRyeDW3uUextaoxGEglYBUGLenE5lGOWPmeRvY40Ba4dHxYiy0sMmNgvQMy8sv2NnIuxjJA0YZ+4kuKoYUkyKlZrk8wX6GvrK/xMQTazhu0OUAno9XkQIptIpVUhtTP3a2sK8Fmbl5ed9HwOZm/7VxqCYYqq3ivn5Bbx7t2gyCRUNzbDUdpMMFQNl6iZFYrDxMzJ2UYvDwyMIhUOmwojvxlk9MEU5OWGEVGohxjIwcK86h+8urH5Aoz7+yAz1s119ruAYZmbS3dWN/sEB9Hb3mBzbQVNXoFVaplK0M9bJNK6DZauPadQXPH48x0rsOSvDjyaTaBLQBwRUdFb0E0MdTE281F7UlJ29ff3UYMhExWQiwdwtjv2DfVZKSZoCwWXVVCoR3KvXdMVd47CvuP+/3xJD/f4A8+IIWpn2hWniktfh4Hq5i3ou9gz6ewcwOTGOkdEh5tMnBPQZHj95iuUlAkoSNWOVZGgjoEpfrAaDjz6mHQODQ3zBKHppKk6axNFRkqDuIk5glYAnWW+nUinzwiKBtVInMrdpiH8koJeolYAqCMmHqtRsoUtzM0f2MLclf0xOms9n2YTpw+zsbe4zTPBzePaUdT3L4LW1VVZO1waUCbyMl4BqiQpMSqJjLDsHhgjq8Cj6+vuMaUij8quJ5AHLtk36mB1TS6u6ybCcU9lWoK/VOLkFs8yqehuXXANTx2Y3znfBcHOp7roylbOdcUFABlmZhUNkaaTNlM9e9hxyhSx26c722NmKtXdgYnwKk5OTOE1n8OLFHN6wto/vslHCaH8WvK8QtY6hBLFOID2jBFqVRYj+p6enB1OT06y7JzA0NMQyMGpMYHNzgyaxhKXlJdbiO5BbkCtQFVKgn5WvFXMVJQ24ArhaJkqFULpiVHiRlI3wn4/gddu392RZMm9FdCXxakE6mdi72W1S2dnJuNDT1ccu1BDkyjiEYO6yz/AWn5dXTAU4PETi9PazlZhg61FtwU/GKosFBmOR4tvXnoullZyb/LeAaqFy6Gpt+WgmIdbmfRRkZHQM4wR2dGyY/tXDqF9kgySF5MERmXrIFt8+Nc6dHaB91uZJ+tt0iiUiO03G5xYIsAFVYF4GqCSvsrtB5OoPA+h5KmN8P0tjBRfFgCBr9ihTo87ODnR2d6Gbe0csyv5BkMRxYi+eZPfrMz59shoxsqibYze4rkk2boJYWVnB8+fPGO0/m1xUnSwDaE2WS4BtBFSDKeg5Ua0zUxpSnS5qXK00aXpwaBg3xkbZeOhGjP3PCE1JLbIszV118SGbJGqcJBMHSCSSbGCItRk2ejOWW8jSLbA3WiS4RZZ9CmxisYCuMVmlqAgsv24k4Q8n36EumMU+p6nZXWx2qB/gZ72upnKAzRNlJ0qNYgQx2holSF6qp8wsJUX/r57uKpvIK/jyZcvkmQq8t2dvYYQMzdJfqvP0ZmGBPdpt0xa0ZKpTcbOA2i4wpZpStCwnHbm/xW/MQ6lV/0AvRkZGMTo6QjfQTnZ4SDoWBKwuBFhejRGTx6ZN/zTNrrry2dPTU5PbZpnzaQGKovkCATb9ADKTubFJ54ikTFmVjCKyh9HYq8DC3RzJSnWfgoGwAVTslAwKQAJaKZEUcsxkfZuBdG1tC8vL60za15CgwjPZlLHATnay9AWhg50vZTIf2URfY9P6kO29xlhQBfV7gIoBtS5QDcDLjjIvsVXmJRaorzmsznd/L6sQJcxRViRhUxiIGSoO1NxNpXIWwDl2z5kZZAhqTkGMEVagq8wToKZtR3+ldE5yGd9IUHR0szmtACPgxEof+6qGmUyLlPpojNiU45wKkgmlenQ7W1tfCNAW88ttsnKPQCVMbqmmiTr8WkM/W32af4txYWNrC0eHR6YDJRkMQwUIgTSOqBlA5c0ucva6/PUmttoovJy+FhWiyUSZZqln2stsYHBg0HTNY7FWBFiJeDxkCoOF/rTVhJISaeeGkcavVh2/5NUijKIJprXxKPM3Bx3r54OpwbN0KUfMIfU9ap0M+0yzXllepunGjStKZ9ldKtD4Vcxwfgfdh2JDBz+zeMhqtR9VxKiAMW3NilAx0loiNAuoRittqpwJbz3f+P88CNSua1HynSbPo/nJh0njrfzu08UGb3usnd37sAkQUTLXH2DQIGuVaKu/6iPTVbGcbV9rvoqlLpOwTMeKZDLdSUE7z+kuTsj0BL916XuXAuL+vuW/a7/lw9U3tcpmwWNNKmWK0cpkRAqdK5orQ9E7KnQzWp90Xgep+X0m71cndUGJJmXArFtcw+CGKc/uGNEUyPisfJxhrd1pGsJy9Ora6wNcO/2rmhKqm/XVUp8k1IUPyN+x6+OgW9CCDOc4l1kI31Lh3GJqmSwusvmbIcMydB05BjW5iZPTtAmAYpXySVPFHR4bH51hAzpLgEyxUQ14Z4Kbk6oFKNXSO0UovcsERuHmoBwaKOirmv5a4Y0T1qdN9YBaGmwcqykvm43Xz/qK1lMCR5FYPkkf+9Qt95KRbgYKDxPqIJmszyo+VizavfSJ8oEuBhE1hMVavU3NZrXTxEalNkq70pkcMvxWpW9OAk2ZQzqrz8Ts9JvCQmatrIH+2IhTW49mrF9D7bxxlAC0QGQZVXtU89SG6/yS7RKG1s9Se9IS5so5v8kQxDTKZHbrXLMpt3XRzLwEWwDq27sAd/KotqGuKTHXuxSYxDAFNe15A2yewGpXkGMg43cqpbVilzYdqqfm9zkqum+Nqd6o/v4WUIu7tFaLot8+dj5Bw9k1AW149po/LH5LVTJnU9EYM6cPpq/Spwq5C+W8PDNjrOXzuaoZyuxNgl1NqQwD2RCuAXmxQPXkuAhQPVXzqjoXuDJxPSf3V/88f35nuwag35npL3H7MkBrsOn+T0CvocqfgF4DrGaG/gS0GZSuMeYnoNcAq5mhfz6g/wVp7N8J8FMKeQAAAABJRU5ErkJggg==;" vertex="1" parent="5WAmbmz_X9Kc_GB2Uyi9-1">
          <mxGeometry x="365.5" y="42" width="48" height="35.43" as="geometry" />
        </mxCell>
        <mxCell id="5WAmbmz_X9Kc_GB2Uyi9-41" value="&lt;font color=&quot;#99ccff&quot; style=&quot;font-size: 18px;&quot;&gt;Data Lake S3&lt;/font&gt;" style="fillColor=none;strokeColor=#147EBA;dashed=1;verticalAlign=top;fontStyle=0;fontColor=#147EBA;whiteSpace=wrap;html=1;rounded=0;" vertex="1" parent="5WAmbmz_X9Kc_GB2Uyi9-1">
          <mxGeometry x="549.5" y="75" width="587.5" height="509.57" as="geometry" />
        </mxCell>
        <mxCell id="5WAmbmz_X9Kc_GB2Uyi9-42" value="&lt;font color=&quot;#e6e6e6&quot;&gt;Raw&amp;nbsp;&lt;/font&gt;&lt;div&gt;&lt;font color=&quot;#e6e6e6&quot;&gt;activities&lt;/font&gt;&lt;/div&gt;" style="sketch=0;points=[[0,0,0],[0.25,0,0],[0.5,0,0],[0.75,0,0],[1,0,0],[0,1,0],[0.25,1,0],[0.5,1,0],[0.75,1,0],[1,1,0],[0,0.25,0],[0,0.5,0],[0,0.75,0],[1,0.25,0],[1,0.5,0],[1,0.75,0]];outlineConnect=0;fontColor=#232F3E;fillColor=#7AA116;strokeColor=#ffffff;dashed=0;verticalLabelPosition=bottom;verticalAlign=top;align=center;html=1;fontSize=12;fontStyle=0;aspect=fixed;shape=mxgraph.aws4.resourceIcon;resIcon=mxgraph.aws4.glacier;" vertex="1" parent="5WAmbmz_X9Kc_GB2Uyi9-1">
          <mxGeometry x="613" y="170" width="39" height="39" as="geometry" />
        </mxCell>
        <mxCell id="5WAmbmz_X9Kc_GB2Uyi9-43" value="&lt;font color=&quot;#e6e6e6&quot;&gt;Raw&amp;nbsp;&lt;/font&gt;&lt;div&gt;&lt;font color=&quot;#e6e6e6&quot;&gt;charging stations&lt;/font&gt;&lt;/div&gt;" style="sketch=0;points=[[0,0,0],[0.25,0,0],[0.5,0,0],[0.75,0,0],[1,0,0],[0,1,0],[0.25,1,0],[0.5,1,0],[0.75,1,0],[1,1,0],[0,0.25,0],[0,0.5,0],[0,0.75,0],[1,0.25,0],[1,0.5,0],[1,0.75,0]];outlineConnect=0;fontColor=#232F3E;fillColor=#7AA116;strokeColor=#ffffff;dashed=0;verticalLabelPosition=bottom;verticalAlign=top;align=center;html=1;fontSize=12;fontStyle=0;aspect=fixed;shape=mxgraph.aws4.resourceIcon;resIcon=mxgraph.aws4.glacier;" vertex="1" parent="5WAmbmz_X9Kc_GB2Uyi9-1">
          <mxGeometry x="613" y="318" width="39" height="39" as="geometry" />
        </mxCell>
        <mxCell id="5WAmbmz_X9Kc_GB2Uyi9-44" value="&lt;font color=&quot;#e6e6e6&quot;&gt;Raw&amp;nbsp;&lt;/font&gt;&lt;div&gt;&lt;font color=&quot;#e6e6e6&quot;&gt;Demographics&lt;/font&gt;&lt;/div&gt;" style="sketch=0;points=[[0,0,0],[0.25,0,0],[0.5,0,0],[0.75,0,0],[1,0,0],[0,1,0],[0.25,1,0],[0.5,1,0],[0.75,1,0],[1,1,0],[0,0.25,0],[0,0.5,0],[0,0.75,0],[1,0.25,0],[1,0.5,0],[1,0.75,0]];outlineConnect=0;fontColor=#232F3E;fillColor=#7AA116;strokeColor=#ffffff;dashed=0;verticalLabelPosition=bottom;verticalAlign=top;align=center;html=1;fontSize=12;fontStyle=0;aspect=fixed;shape=mxgraph.aws4.resourceIcon;resIcon=mxgraph.aws4.glacier;" vertex="1" parent="5WAmbmz_X9Kc_GB2Uyi9-1">
          <mxGeometry x="611" y="493" width="39" height="39" as="geometry" />
        </mxCell>
        <mxCell id="5WAmbmz_X9Kc_GB2Uyi9-45" value="" style="endArrow=classic;html=1;rounded=0;exitX=0;exitY=0.5;exitDx=0;exitDy=0;exitPerimeter=0;entryX=1.123;entryY=0.658;entryDx=0;entryDy=0;entryPerimeter=0;" edge="1" parent="5WAmbmz_X9Kc_GB2Uyi9-1" source="5WAmbmz_X9Kc_GB2Uyi9-33" target="5WAmbmz_X9Kc_GB2Uyi9-39">
          <mxGeometry width="50" height="50" relative="1" as="geometry">
            <mxPoint x="-330" y="742" as="sourcePoint" />
            <mxPoint x="-280" y="692" as="targetPoint" />
          </mxGeometry>
        </mxCell>
        <mxCell id="5WAmbmz_X9Kc_GB2Uyi9-46" value="" style="endArrow=classic;html=1;rounded=0;exitX=1;exitY=0.75;exitDx=0;exitDy=0;exitPerimeter=0;entryX=0;entryY=0.5;entryDx=0;entryDy=0;entryPerimeter=0;" edge="1" parent="5WAmbmz_X9Kc_GB2Uyi9-1" source="5WAmbmz_X9Kc_GB2Uyi9-44" target="5WAmbmz_X9Kc_GB2Uyi9-16">
          <mxGeometry width="50" height="50" relative="1" as="geometry">
            <mxPoint x="780" y="336" as="sourcePoint" />
            <mxPoint x="830" y="286" as="targetPoint" />
          </mxGeometry>
        </mxCell>
        <mxCell id="5WAmbmz_X9Kc_GB2Uyi9-47" value="" style="endArrow=classic;html=1;rounded=0;entryX=0;entryY=0.75;entryDx=0;entryDy=0;entryPerimeter=0;exitX=1;exitY=0.5;exitDx=0;exitDy=0;exitPerimeter=0;" edge="1" parent="5WAmbmz_X9Kc_GB2Uyi9-1" source="5WAmbmz_X9Kc_GB2Uyi9-33" target="5WAmbmz_X9Kc_GB2Uyi9-44">
          <mxGeometry width="50" height="50" relative="1" as="geometry">
            <mxPoint x="310" y="798" as="sourcePoint" />
            <mxPoint x="360" y="748" as="targetPoint" />
          </mxGeometry>
        </mxCell>
        <mxCell id="5WAmbmz_X9Kc_GB2Uyi9-48" value="" style="endArrow=classic;html=1;rounded=0;entryX=0;entryY=0.75;entryDx=0;entryDy=0;entryPerimeter=0;exitX=1;exitY=0.5;exitDx=0;exitDy=0;exitPerimeter=0;" edge="1" parent="5WAmbmz_X9Kc_GB2Uyi9-1" source="5WAmbmz_X9Kc_GB2Uyi9-16" target="5WAmbmz_X9Kc_GB2Uyi9-37">
          <mxGeometry width="50" height="50" relative="1" as="geometry">
            <mxPoint x="651" y="758" as="sourcePoint" />
            <mxPoint x="701" y="708" as="targetPoint" />
          </mxGeometry>
        </mxCell>
        <mxCell id="5WAmbmz_X9Kc_GB2Uyi9-49" value="&lt;font style=&quot;font-size: 17px;&quot;&gt;Data Analyst&lt;/font&gt;" style="shape=actor;whiteSpace=wrap;html=1;labelPosition=center;verticalLabelPosition=bottom;align=center;verticalAlign=top;" vertex="1" parent="5WAmbmz_X9Kc_GB2Uyi9-1">
          <mxGeometry x="1443" y="535" width="40" height="60" as="geometry" />
        </mxCell>
        <mxCell id="5WAmbmz_X9Kc_GB2Uyi9-50" value="Data Governance    / User management " style="rounded=0;arcSize=10;dashed=1;strokeColor=#F59D56;fillColor=none;gradientColor=none;dashPattern=8 4;strokeWidth=2;fontSize=18;fontColor=#99CCFF;" vertex="1" parent="5WAmbmz_X9Kc_GB2Uyi9-1">
          <mxGeometry x="388" y="651" width="929" height="90" as="geometry" />
        </mxCell>
      </root>
    </mxGraphModel>
  </diagram>
</mxfile>
